<?xml version="1.0" encoding="UTF-8"?>
<svg version="1.1" xmlns="http://www.w3.org/2000/svg" width="500" height="500">
<path d="M0 0 C165 0 330 0 500 0 C500 165 500 330 500 500 C335 500 170 500 0 500 C0 335 0 170 0 0 Z " fill="#FEFEFE" transform="translate(0,0)"/>
<path d="M0 0 C1.19867706 -0.01134979 2.39735413 -0.02269958 3.63235474 -0.03439331 C4.94929825 -0.03146271 6.26624176 -0.0285321 7.62309265 -0.0255127 C9.02265604 -0.03285138 10.42221336 -0.04143702 11.82176208 -0.05117798 C15.62563842 -0.07342812 19.42929835 -0.07632281 23.23323083 -0.07443047 C26.40908492 -0.07431089 29.58489296 -0.08287023 32.76073426 -0.09120798 C40.25508669 -0.11045596 47.74932774 -0.11332138 55.24369812 -0.10656738 C62.97197942 -0.09993053 70.69978296 -0.12277304 78.42796737 -0.15988111 C85.06418811 -0.19058841 91.70025529 -0.20193689 98.33654565 -0.1980443 C102.29953557 -0.19597723 106.26215407 -0.20144844 110.22507668 -0.22593689 C113.95417691 -0.24821793 117.6825019 -0.24631591 121.41160583 -0.22600937 C123.42863669 -0.22097893 125.44568207 -0.24060973 127.46261597 -0.26101685 C129.27332077 -0.24420364 129.27332077 -0.24420364 131.12060547 -0.22705078 C132.16570943 -0.22776329 133.21081339 -0.2284758 134.28758717 -0.2292099 C138.18210879 0.59041258 140.60028881 2.53048006 143.2507782 5.39440918 C144.48768722 7.85525688 145.39595389 9.97637458 146.23663521 12.55703545 C146.48096472 13.25543004 146.72529423 13.95382463 146.97702766 14.67338269 C147.75344185 16.90785458 148.50275968 19.15029216 149.2507782 21.39440918 C149.7454465 22.83551712 150.24154655 24.27613442 150.73909736 25.7162497 C152.34787681 30.39854937 153.91308759 35.09497431 155.47706604 39.79238892 C156.08009417 41.59629214 156.68337692 43.40011027 157.2868892 45.20385158 C158.9292362 50.1149124 160.56790634 55.02719296 162.20590544 59.93970537 C163.97875972 65.25453958 165.7550266 70.56823331 167.53079224 75.88209534 C171.40345834 87.47305244 175.27165717 99.06549724 179.13886023 110.65827799 C181.55407871 117.89839426 183.97017825 125.1382163 186.38643265 132.37798691 C193.07992789 152.43411696 199.77232142 172.49061381 206.46052361 192.5485096 C206.89193049 193.84228699 207.32333747 195.13606436 207.75474454 196.42984169 C208.18714752 197.72660935 208.6195504 199.02337705 209.0519532 200.32014477 C209.91933256 202.92139778 210.78671466 205.52264986 211.65409851 208.12390137 C211.86915338 208.7688472 212.08420826 209.41379304 212.30577994 210.07828269 C219.29205659 231.02983784 226.2857191 251.97891725 233.28377218 272.92654164 C240.69103663 295.09916899 248.09178343 317.27395881 255.48502171 339.45126808 C259.51252363 351.531939 263.54293202 363.61162299 267.58076096 375.68884659 C271.0147695 385.9601382 274.44265516 396.23344705 277.86247711 406.50947125 C279.60779291 411.75325215 281.35603859 416.9960086 283.11209297 422.23620415 C284.71835065 427.02962672 286.31633147 431.82572416 287.90767087 436.62411927 C288.48576495 438.36233734 289.06692516 440.09953921 289.65140127 441.83562173 C290.44359548 444.19016337 291.22466785 446.54811171 292.00301933 448.90725899 C292.23393434 449.58481361 292.46484934 450.26236824 292.70276177 450.96045482 C293.98021597 454.87948157 294.66242749 458.27449915 294.2507782 462.39440918 C291.58298819 465.06219918 290.30592277 464.64997237 286.57711792 464.66183472 C284.76637535 464.67462967 284.76637535 464.67462967 282.91905212 464.68768311 C281.57414233 464.68698402 280.22923263 464.68606092 278.88432312 464.68493652 C277.4734359 464.69091836 276.06255196 464.6977231 274.65167236 464.70529175 C270.81271712 464.72299679 266.97385097 464.72764908 263.13485885 464.72892332 C259.93163206 464.73082019 256.72842612 464.7381755 253.52520734 464.74526751 C245.96716752 464.7615671 238.40917537 464.76643513 230.85112 464.76501465 C223.05304696 464.76381361 215.25525087 464.78490413 207.45724791 464.81650198 C200.7650272 464.84265346 194.07289697 464.85338238 187.38062555 464.85210383 C183.38248841 464.85159375 179.38459714 464.85730178 175.38651085 464.87845993 C171.62469851 464.8978229 167.86336699 464.89798051 164.1015377 464.88342667 C162.72166746 464.88133483 161.3417673 464.88606187 159.96194839 464.89814758 C158.07648945 464.91359078 156.1908667 464.90189714 154.3053894 464.8888855 C152.72334103 464.8905198 152.72334103 464.8905198 151.10933208 464.89218712 C147.39500734 464.24538843 145.96317475 463.00776977 143.2507782 460.39440918 C142.07561349 457.98497614 141.16870087 455.81153646 140.32700062 453.29428291 C140.07814867 452.5913766 139.82929672 451.88847029 139.5729038 451.16426379 C138.78170355 448.91318477 138.01464889 446.65489284 137.2507782 444.39440918 C136.7542043 442.95234122 136.25719142 441.51042435 135.75972974 440.06866241 C134.15529988 435.3872728 132.59272805 430.69227284 131.03121948 425.99642944 C130.42890868 424.19252476 129.82633847 422.38870669 129.22353441 420.58496678 C127.58311199 415.67390691 125.94638113 410.76162387 124.31031001 405.84911299 C122.53952121 400.53426635 120.76527601 395.22057356 118.99150085 389.90672302 C115.5242553 379.5176957 112.06027242 369.12758342 108.59754326 358.73704998 C105.78400781 350.29465744 102.96940902 341.85262013 100.15406227 333.41083145 C99.75273655 332.20744949 99.35141084 331.00406752 98.93792373 329.76421944 C98.12257437 327.31938314 97.30722431 324.87454707 96.49187354 322.42971124 C91.0239655 306.03376536 85.55721084 289.63743547 80.09284496 273.24030876 C79.87955154 272.60027211 79.66625811 271.96023546 79.44650125 271.30080377 C78.36558492 268.05724904 77.2846806 264.81369031 76.20378109 261.57012998 C75.98913008 260.92600584 75.77447906 260.28188171 75.55332347 259.61823866 C75.11924986 258.31567119 74.68517682 257.01310352 74.25110433 255.71053567 C67.48688573 235.41251475 60.71866923 215.1158308 53.9473114 194.82019043 C46.33161196 171.99379969 38.71891365 149.16641193 31.11062318 126.33755028 C27.08463584 114.25767415 23.05732218 102.17824408 19.0265255 90.09997177 C15.59843177 79.8275766 12.17346677 69.55414491 8.75258067 59.27934711 C7.00688082 54.03634173 5.25972318 48.79383401 3.5086689 43.55261421 C1.90683926 38.75792435 0.30914747 33.96187679 -1.28521558 29.16469909 C-1.86355838 27.42700743 -2.44343069 25.68982394 -3.02496169 23.95319663 C-3.81359925 21.5973423 -4.59669614 19.23971682 -5.37841511 16.88155937 C-5.72084709 15.86522743 -5.72084709 15.86522743 -6.0701969 14.82836354 C-7.31796898 11.04164516 -8.32270331 7.36465958 -8.7492218 3.39440918 C-6.64633916 -0.21453427 -3.91052619 0.01396706 0 0 Z " fill="#5E17EB" transform="translate(198.7492218017578,17.6055908203125)"/>
<path d="M0 0 C0.71859509 -0.00623996 1.43719017 -0.01247993 2.17756087 -0.01890898 C4.58603839 -0.03486693 6.99350773 -0.02222452 9.4019928 -0.00964355 C11.12844432 -0.01506351 12.85489122 -0.02218545 14.58132935 -0.03088379 C19.27147637 -0.04913662 23.96127187 -0.0420412 28.65142512 -0.02936745 C33.55783846 -0.01924829 38.46422148 -0.02863026 43.37063599 -0.03491211 C51.61161203 -0.04219237 59.85244476 -0.03259161 68.09339905 -0.0135498 C77.62175647 0.00821244 87.14977145 0.0011738 96.67812055 -0.02085543 C104.85658542 -0.03900726 113.03494719 -0.04156859 121.2134257 -0.03110075 C126.09904598 -0.0248637 130.98450533 -0.02403586 135.87011528 -0.0372467 C140.4642292 -0.04880116 145.05790176 -0.04078691 149.651968 -0.01766968 C151.33821123 -0.01238011 153.0244916 -0.01390063 154.71072006 -0.02272034 C157.012645 -0.03365033 159.31315545 -0.01994482 161.61499023 0 C163.54711066 0.00226215 163.54711066 0.00226215 165.51826382 0.00457001 C169.52072053 0.605483 171.21109094 1.4623389 173.87098694 4.50793457 C174.69155242 9.39514624 173.06584589 13.63808921 171.43141174 18.19851685 C171.16942143 18.95411951 170.90743113 19.70972217 170.63750172 20.48822188 C170.06348962 22.14106208 169.48536502 23.79247839 168.90365696 25.44262576 C167.27731039 30.05905814 165.68357774 34.68680519 164.08363342 39.31243896 C163.57010874 40.79278525 163.57010874 40.79278525 163.04620981 42.30303752 C159.08607179 53.73370353 155.25941251 65.20840064 151.43544006 76.68518066 C150.68987585 78.92018212 149.94424146 81.15516016 149.19853973 83.39011574 C147.25236225 89.22451999 145.30795101 95.05951141 143.36397362 100.89464903 C141.50077341 106.4865761 139.63633382 112.07808985 137.77200109 117.66963942 C133.8543212 129.41986162 129.93844371 141.17068383 126.02323753 152.92173047 C122.70227072 162.88909345 119.3797335 172.85593179 116.05604553 182.8223877 C112.14763702 194.54219671 108.24025182 206.26234614 104.33437872 217.9830004 C102.28465885 224.13369144 100.23457408 230.28426006 98.18338013 236.43445969 C89.94815401 261.1283718 81.75784764 285.83491015 73.72124195 310.59423447 C68.74749498 325.91509759 63.69239909 341.20795562 58.59952331 356.48958254 C57.89456387 358.60519265 57.1900363 360.72094614 56.48563576 362.8367424 C54.01553517 370.25611169 51.54400099 377.67500139 49.07093811 385.09338379 C46.77985296 391.96602714 44.49219817 398.83980638 42.2059595 405.71406329 C40.21714859 411.69352559 38.22605357 417.672224 36.23314077 423.65032041 C35.05317359 427.18996776 33.87412884 430.72991563 32.69742393 434.27064896 C31.40207808 438.16807861 30.1019914 442.06391011 28.80140686 445.95959473 C28.22264297 447.70431564 28.22264297 447.70431564 27.63218689 449.48428345 C27.28082169 450.53418457 26.92945648 451.58408569 26.56744385 452.665802 C26.26207797 453.5824444 25.95671209 454.4990868 25.6420927 455.44350624 C24.87098694 457.50793457 24.87098694 457.50793457 23.87098694 458.50793457 C23.83005756 460.8409089 23.82856971 463.17498682 23.87098694 465.50793457 C42.69024009 465.60136595 61.5094462 465.67190789 80.32888317 465.71518326 C89.06703633 465.73581064 97.8050454 465.76393454 106.54310608 465.80969238 C114.15899368 465.84955484 121.77477694 465.87536611 129.39076596 465.88428855 C133.42361799 465.88950434 137.45617148 465.90176672 141.48892784 465.9308548 C145.28514278 465.95801474 149.08093635 465.96637853 152.87723923 465.9603653 C154.27002439 465.96146529 155.66282371 465.96941616 157.05552483 465.98475647 C158.95856389 466.00468898 160.86182928 465.99748178 162.76495361 465.98895264 C163.82962451 465.99263981 164.89429541 465.99632698 165.99122906 466.00012589 C169.76053004 465.35589908 171.25390518 464.29633876 173.87098694 461.50793457 C175.09018267 458.85732779 176.03864028 456.42926188 176.91474915 453.67112732 C177.17888092 452.88553299 177.44301269 452.09993865 177.71514845 451.29053843 C178.58638783 448.68683021 179.43411889 446.07608166 180.28211975 443.46472168 C180.8964537 441.61401852 181.51232372 439.76382463 182.12964249 437.91411495 C183.41745521 434.04655358 184.69572975 430.17603266 185.96621704 426.30274582 C187.76423014 420.82369011 189.58697719 415.35318556 191.41822815 409.88516235 C194.42684125 400.89437912 197.4169589 391.89755533 200.40183258 382.89886665 C202.34994267 377.02588956 204.30171719 371.15413384 206.25410461 365.28257751 C211.79199657 348.62683732 217.32782343 331.97041661 222.85438538 315.31091309 C225.93522924 306.02398507 229.02029814 296.73847233 232.11021733 287.45455974 C233.73529265 282.57127334 235.3581355 277.68726998 236.97568512 272.80148506 C238.48430057 268.24474721 239.99838081 263.68986375 241.5167923 259.13638115 C242.07279549 257.46566583 242.62672619 255.7942592 243.1784668 254.12213135 C243.92909795 251.84822817 244.68700748 249.57688292 245.44685364 247.30604553 C245.66493518 246.63946743 245.88301672 245.97288933 246.10770679 245.28611189 C247.06461176 242.44980256 247.7230366 240.65588491 249.87098694 238.50793457 C249.30161194 244.51632517 248.00934765 249.80907022 246.08221436 255.51589966 C245.65026779 256.82449764 245.65026779 256.82449764 245.20959502 258.15953195 C244.24795252 261.06664966 243.27569086 263.9700986 242.30335999 266.87365723 C241.60958698 268.96339285 240.91644721 271.05333879 240.22389221 273.14347839 C238.34445589 278.80882238 236.45551696 284.47095475 234.5643537 290.13239336 C232.98585088 294.86076796 231.4120417 299.59069897 229.83823997 304.32063997 C225.91371788 316.11529298 221.98013508 327.90690622 218.04225925 339.69710581 C214.83768988 349.29255851 211.6418844 358.89089405 208.45228577 368.49133301 C204.74450186 379.65146669 201.03059196 390.8095389 197.3080104 401.96474683 C195.338875 407.86566393 193.37230073 413.76740237 191.41225243 419.67134476 C189.56944761 425.22099074 187.71791701 430.76764889 185.85962677 436.31212807 C185.17927844 438.34683947 184.50199278 440.3825779 183.82800484 442.41940498 C182.90720947 445.20044085 181.97538923 447.9775417 181.04071045 450.75393677 C180.77678661 451.55977475 180.51286276 452.36561273 180.24094123 453.19587004 C178.34096317 458.78367312 176.28534588 463.62445351 171.498559 467.35870457 C168.41410452 468.70776277 166.19276563 468.88784772 162.82983398 468.89561462 C161.01073769 468.91047157 161.01073769 468.91047157 159.15489197 468.92562866 C157.81928914 468.921391 156.4836873 468.91683318 155.14808655 468.9119873 C153.73513245 468.91769232 152.32218296 468.9246571 150.90924072 468.93278503 C147.0787453 468.95071413 143.24847897 468.94954897 139.41795421 468.94384265 C136.21944612 468.94075139 133.02098208 468.94684232 129.82248026 468.9528814 C122.2783091 468.96692327 114.7342512 468.96536728 107.19007874 468.95397949 C99.40610997 468.94248944 91.62248538 468.95658941 83.83856195 468.98337597 C77.1539282 469.00551857 70.46940261 469.01217389 63.78473479 469.00629956 C59.79283722 469.00292639 55.80116048 469.00536905 51.80929375 469.02255058 C48.05727153 469.03799564 44.30576046 469.03409197 40.55375862 469.01524544 C39.17669906 469.01155317 37.79960181 469.01468667 36.4225769 469.02513123 C34.54347524 469.03829641 32.66424196 469.02441319 30.78515625 469.00914001 C29.733432 469.00893073 28.68170774 469.00872145 27.59811306 469.00850582 C24.14903014 468.37541748 22.94571343 467.29709242 20.87098694 464.50793457 C20.6514606 455.58725302 24.48323359 446.92734928 27.32460022 438.57702637 C27.8985991 436.86819606 28.47176848 435.15908692 29.04417419 433.44972229 C30.27387134 429.78291095 31.50910063 426.11802837 32.74864578 422.45453453 C34.7077119 416.66346323 36.65260002 410.86769253 38.59532166 405.07112122 C43.42030617 390.68206644 48.26502238 376.29966573 53.11134338 361.91778564 C56.88285849 350.72453335 60.64943907 339.52966836 64.40183437 328.32998973 C66.33396158 322.56509503 68.27606428 316.80368827 70.22575021 311.04470956 C71.43412092 307.46852796 72.6338122 303.88948013 73.83110428 300.30957603 C74.38898938 298.64745357 74.95050948 296.98654622 75.51587677 295.32695389 C76.28563086 293.06578631 77.04240766 290.80067703 77.79606628 288.53410339 C78.02397201 287.87486883 78.25187773 287.21563427 78.48668969 286.53642291 C80.23939168 281.18834681 79.37028204 278.37222531 77.04260635 273.43522167 C74.7134861 268.28892741 72.90247647 263.02910872 71.12507629 257.67134094 C70.77047309 256.614328 70.41586989 255.55731507 70.05052114 254.46827143 C68.87019679 250.94620274 67.69626371 247.42203858 66.52235413 243.89782715 C65.67484277 241.36427434 64.82698914 238.8308383 63.97874451 236.29753113 C61.91923615 230.1438404 59.86468285 223.9885066 57.81212041 217.83249597 C56.14397 212.82947323 54.47439526 207.8269281 52.80382538 202.82471275 C48.06431462 188.63256828 43.32856003 174.43917853 38.59764084 160.24416772 C38.34302084 159.48018783 38.08840083 158.71620794 37.82606506 157.92907715 C37.5711342 157.16416191 37.31620333 156.39924668 37.05354729 155.61115219 C32.9160996 143.19758811 28.76966651 130.78704638 24.61917982 118.3778365 C20.35436614 105.62646748 16.09625606 92.87287722 11.84513974 80.11693496 C9.45953362 72.95912056 7.07116279 65.80225635 4.67557526 58.64777565 C2.63765104 52.56129142 0.60595382 46.47277312 -1.4176679 40.38151792 C-2.4500945 37.27443222 -3.48637241 34.16872689 -4.52856064 31.06489944 C-5.65771294 27.70049572 -6.7757588 24.33260095 -7.89103699 20.96357727 C-8.3888766 19.49320447 -8.3888766 19.49320447 -8.89677358 17.99312717 C-11.88984358 8.87493088 -11.88984358 8.87493088 -11.12901306 4.50793457 C-8.13829321 -0.00046168 -5.17619619 0.00606214 0 0 Z M-9.12901306 4.50793457 C-8.81747459 11.15718339 -6.83209758 17.09453306 -4.71263123 23.36508179 C-4.35721331 24.43631322 -4.0017954 25.50754465 -3.63560724 26.61123765 C-2.44586099 30.19103215 -1.24544727 33.76715525 -0.04502869 37.34338379 C0.81210239 39.91222431 1.66697221 42.48181586 2.52194214 45.05137634 C4.60215569 51.29882308 6.69028544 57.54359608 8.7810446 63.78752045 C11.215006 71.05752663 13.64071434 78.33027769 16.06599611 85.60318305 C20.39197684 98.57506513 24.72486446 111.54462926 29.06190491 124.51281738 C33.27224948 137.10220805 37.47858966 149.69292616 41.68006897 162.28527832 C41.93910946 163.06165157 42.19814995 163.83802482 42.46504015 164.63792454 C43.50619951 167.75842843 44.5473478 170.87893601 45.58847734 173.99944984 C50.07411892 187.44365054 54.56307014 200.88674639 59.05244088 214.3297022 C59.77991791 216.50815031 60.50731551 218.68662493 61.23469353 220.86510611 C63.77945783 228.48638861 66.32521014 236.10733888 68.87377059 243.7273529 C69.92776361 246.87872996 70.98115156 250.03030676 72.03357887 253.18220711 C73.17251837 256.59283879 74.31330075 260.00284828 75.4546051 263.41268921 C75.78952264 264.41694407 76.12444018 265.42119894 76.46950674 266.45588577 C76.77393651 267.36410052 77.07836627 268.27231527 77.39202118 269.20805168 C77.65538474 269.99581171 77.91874829 270.78357174 78.19009256 271.59520328 C78.84463964 273.55636945 78.84463964 273.55636945 79.87098694 275.50793457 C80.53098694 275.50793457 81.19098694 275.50793457 81.87098694 275.50793457 C92.61585542 244.21013942 103.1610063 212.84728395 113.64442444 181.46105957 C114.04940548 180.24876521 114.45438653 179.03647085 114.87163973 177.7874403 C118.70168453 166.3223167 122.53085039 154.85690017 126.35718346 143.39053726 C127.22830866 140.78008873 128.0994444 138.16964372 128.97059631 135.5592041 C129.1869754 134.91081289 129.40335449 134.26242168 129.62629052 133.59438226 C133.16737252 122.98391625 136.71465124 112.37553208 140.26428966 101.76792589 C143.93608477 90.79491634 147.60212194 79.81999849 151.26289999 68.84330821 C153.30795693 62.71178667 155.35550758 56.58112477 157.40920639 50.45249176 C159.32832275 44.7250787 161.24039693 38.99536412 163.14698601 33.26376915 C163.84744154 31.16218102 164.55047528 29.06145023 165.25624657 26.96164131 C166.21706388 24.10174298 167.16863598 21.23893161 168.11790466 18.37518311 C168.40017611 17.54225085 168.68244756 16.7093186 168.97327268 15.85114598 C170.84211624 10.30469875 170.84211624 10.30469875 170.87098694 4.50793457 C167.99501776 1.6319654 165.99223959 2.25631666 161.96229553 2.25396729 C161.2432926 2.2508473 160.52428967 2.24772732 159.78349876 2.2445128 C157.3620585 2.23650328 154.94086679 2.24286781 152.51942444 2.24914551 C150.78840487 2.24643695 149.05738646 2.24287679 147.32637024 2.23852539 C142.61573224 2.22938299 137.90518152 2.23295324 133.19454193 2.23928356 C128.27337401 2.244334 123.35221374 2.23965478 118.43104553 2.23651123 C110.16556959 2.23286879 101.90012934 2.23767797 93.63465881 2.24719238 C84.06774472 2.25807746 74.50091586 2.25455208 64.93400383 2.24353957 C56.73186957 2.23447461 48.52976102 2.23317754 40.32762337 2.23841691 C35.42366767 2.24154097 30.51975209 2.24193403 25.61579895 2.23534393 C21.00624841 2.22958257 16.39680817 2.23354508 11.78726959 2.24513245 C10.09169956 2.24778553 8.3961203 2.24700295 6.70055389 2.24260712 C4.39346844 2.23717565 2.08674074 2.24395621 -0.22032166 2.25396729 C-1.51376495 2.25472134 -2.80720825 2.25547539 -4.1398468 2.25625229 C-7.24523232 2.19396289 -7.24523232 2.19396289 -9.12901306 4.50793457 Z " fill="#7B41EE" transform="translate(15.129013061523438,15.4920654296875)"/>
<path d="M0 0 C1.15660629 -0.00845947 2.31321259 -0.01691895 3.50486755 -0.02563477 C5.41015228 -0.01652573 5.41015228 -0.01652573 7.35392761 -0.00723267 C8.70422796 -0.01129754 10.05452497 -0.01663895 11.40481567 -0.02316284 C15.07442806 -0.03685635 18.74378781 -0.03152851 22.4134047 -0.02202559 C26.25431901 -0.01443479 30.09521156 -0.02147341 33.93612671 -0.02618408 C40.38988631 -0.03164531 46.84354301 -0.0244425 53.29728699 -0.01016235 C60.752803 0.0061442 68.20807264 0.00089176 75.66358262 -0.01564157 C82.06625307 -0.02927079 88.46884948 -0.03116847 94.87152976 -0.02332556 C98.69468608 -0.01865424 102.51772678 -0.01800881 106.34087563 -0.02793503 C109.9385113 -0.03662262 113.53583076 -0.03055039 117.13343239 -0.01325226 C119.07886448 -0.0074134 121.02432341 -0.01628917 122.96974182 -0.02563477 C134.63047946 0.05903315 134.63047946 0.05903315 138.44059753 3.38095093 C142.98641395 11.60154991 145.73761719 20.70245644 148.68019104 29.58506775 C149.18794042 31.10298167 149.69621058 32.62072146 150.20495188 34.13830322 C151.59195707 38.28078351 152.97153645 42.42570311 154.34982944 46.57108891 C155.84100165 51.05162273 157.33908931 55.5298442 158.83625793 60.00837708 C161.76342275 68.76827439 164.6840829 77.53032692 167.60232393 86.29320062 C169.97290648 93.41125388 172.34572392 100.52855839 174.72012711 107.64533806 C175.05833245 108.65905244 175.3965378 109.67276682 175.74499179 110.71719981 C176.43206045 112.77655461 177.11913253 114.83590827 177.80620797 116.8952608 C184.2415389 136.1846925 190.66929227 155.47664272 197.09459777 174.76941579 C202.97866953 192.43635251 208.87155973 210.10033278 214.76868765 227.76291526 C220.8235219 245.89806591 226.87285659 264.0350419 232.91601717 282.17408603 C233.59865721 284.22302872 234.28130564 286.27196862 234.96396255 288.32090569 C235.29984978 289.32904375 235.63573701 290.33718182 235.98180263 291.37586953 C238.3534145 298.49287336 240.72862333 305.60867079 243.10525131 312.72400093 C245.99740417 321.38299485 248.88431851 330.04371324 251.76437943 338.70673693 C253.23490094 343.12949236 254.70786717 347.55139456 256.18729401 351.97117996 C257.53935194 356.01066656 258.88456002 360.05236433 260.22416122 364.0959984 C260.711944 365.56426884 261.20230264 367.03168635 261.69538598 368.49818522 C262.36125231 370.47978802 263.01795557 372.46419012 263.67229271 374.44962406 C264.22470731 376.10727239 264.22470731 376.10727239 264.7882818 377.79840857 C265.44059753 380.38095093 265.44059753 380.38095093 264.44059753 382.38095093 C262.44059753 381.38095093 262.44059753 381.38095093 261.40812361 378.89761764 C261.03740654 377.78031538 260.66668947 376.66301312 260.28473854 375.51185322 C260.07595927 374.88948706 259.86718001 374.26712091 259.6520741 373.62589517 C258.94669803 371.51704865 258.25217785 369.40478023 257.55744934 367.29240417 C257.05186955 365.77355076 256.54562598 364.25491815 256.03877199 362.73648947 C254.64188608 358.54536647 253.25439432 354.35118352 251.86831474 350.15647638 C250.37404828 345.63987002 248.87113354 341.12614273 247.36917114 336.61209106 C244.7655582 328.78337294 242.16725141 320.95291004 239.57229996 313.12131691 C235.81784804 301.79089204 232.05346392 290.46378628 228.28626327 279.13759466 C222.1717718 260.75386323 216.062661 242.3683491 209.95817566 223.98129272 C209.4096776 222.32919649 209.4096776 222.32919649 208.85009877 220.64372458 C204.77165949 208.35905108 200.69403706 196.07410655 196.61680603 183.78903198 C195.13915656 179.33683223 193.66147346 174.88464364 192.1837616 170.4324646 C191.8191482 169.33391837 191.4545348 168.23537215 191.07887252 167.10353664 C185.00123652 148.79287462 178.91658507 130.48455186 172.82666433 112.17797202 C169.06855919 100.87986038 165.3167011 89.57971087 161.57281719 78.27687856 C159.00671898 70.53120293 156.4342342 62.787668 153.85669233 55.04579303 C152.36905688 50.57679695 150.8844358 46.10685631 149.4076786 41.63425255 C148.05582219 37.54009658 146.69570384 33.4487839 145.32895796 29.35957523 C144.83587837 27.8794015 144.345861 26.39820342 143.85921617 24.91590164 C143.19716681 22.90080518 142.52407126 20.88972893 141.84813881 18.87925434 C141.29157614 17.20208331 141.29157614 17.20208331 140.72376978 15.49103004 C138.76925748 10.75379551 136.73429017 7.24341268 132.44059753 4.38095093 C129.77908379 4.06849812 129.77908379 4.06849812 126.72692871 4.10247803 C125.536409 4.09131454 124.34588928 4.08015106 123.11929321 4.06864929 C121.81162491 4.06648911 120.5039566 4.06432892 119.15666199 4.06210327 C117.76706864 4.05280609 116.37748088 4.04263773 114.98789978 4.03166199 C111.2134163 4.00432411 107.43897022 3.98920142 103.66441369 3.97623396 C99.72055784 3.96061994 95.77677855 3.93382424 91.83297729 3.90820312 C84.36387845 3.86138465 76.89476526 3.82465542 69.42559451 3.79153025 C60.9226165 3.75333052 52.41971533 3.70391475 43.91680205 3.65354609 C26.42478943 3.55018061 8.93273237 3.46093526 -8.55940247 3.38095093 C-5.99155714 0.09200844 -4.07105237 0.0045722 0 0 Z " fill="#EEE7FD" transform="translate(203.5594024658203,14.619049072265625)"/>
<path d="M0 0 C0.99 0.495 0.99 0.495 2 1 C2.30252099 6.00340518 1.23006269 10.03127828 -0.43765259 14.68357849 C-0.83042597 15.81620021 -0.83042597 15.81620021 -1.23113418 16.97170317 C-1.80491083 18.62365602 -2.38279421 20.27418679 -2.96425509 21.92345059 C-4.5902694 26.53852368 -6.18360686 31.16493221 -7.78302002 35.78927612 C-8.12545553 36.77651541 -8.46789104 37.76375469 -8.82070339 38.78091031 C-12.79681693 50.25959467 -16.63664031 61.78322729 -20.47412109 73.30883789 C-21.22269156 75.55447896 -21.97133254 77.80009652 -22.72004128 80.04569149 C-24.66937769 85.89376604 -26.61696217 91.74242268 -28.56419706 97.59119725 C-30.62767548 103.7880106 -32.69292624 109.98423325 -34.75796509 116.18052673 C-38.20620501 126.52780603 -41.65330666 136.87546401 -45.09960938 147.22338867 C-48.64087583 157.85644305 -52.18280654 168.48927579 -55.72558594 179.12182617 C-55.94593248 179.78312851 -56.16627902 180.44443086 -56.39330272 181.12577266 C-57.49930871 184.44509617 -58.60532729 187.76441549 -59.71135211 191.08373272 C-68.80951753 218.38850583 -77.90548304 245.69401147 -87 273 C-87.99 272.67 -88.98 272.34 -90 272 C-88.05020279 264.57832394 -85.85754486 257.28016288 -83.42576599 250.00314331 C-83.0775119 248.95314435 -82.7292578 247.90314539 -82.37045056 246.82132828 C-81.21260816 243.33289985 -80.05054035 239.8458947 -78.88842773 236.35888672 C-78.05356825 233.84668086 -77.21893504 231.33440078 -76.384552 228.82203674 C-74.12550769 222.02217215 -71.86205195 215.22378117 -69.59770846 208.42567968 C-68.18367674 204.18031852 -66.77062366 199.93463203 -65.35777473 195.68887711 C-61.4436099 183.92684468 -57.52851137 172.1651243 -53.60935879 160.40475273 C-53.35922032 159.65414975 -53.10908185 158.90354677 -52.85136342 158.13019825 C-52.34433381 156.60874318 -51.83730344 155.08728836 -51.33027231 153.56583379 C-51.07859934 152.81063208 -50.82692637 152.05543036 -50.56762695 151.27734375 C-50.31564582 150.52121981 -50.06366469 149.76509587 -49.80404777 148.98605908 C-45.70977961 136.6997033 -41.62257965 124.41100886 -37.53843939 112.12128316 C-33.34257897 99.49568385 -29.14114399 86.87195141 -24.93396717 74.25011837 C-22.57282395 67.16610326 -20.21407683 60.08131032 -17.86141777 52.9944725 C-15.65295016 46.34210081 -13.43685631 39.69231337 -11.21545792 33.04424858 C-10.39932395 30.59767308 -9.58577978 28.150232 -8.77494621 25.70189476 C-7.67258667 22.37459545 -6.56115341 19.05046949 -5.44725037 15.72702026 C-5.1243918 14.74524461 -4.80153324 13.76346895 -4.46889108 12.75194252 C-4.17067046 11.86846928 -3.87244984 10.98499605 -3.56519222 10.0747509 C-3.30936806 9.30646395 -3.05354389 8.53817699 -2.78996748 7.74660861 C-2 6 -2 6 0 5 C0 3.35 0 1.7 0 0 Z " fill="#7D43EE" transform="translate(187,19)"/>
<path d="M0 0 C0.33 0 0.66 0 1 0 C0.430625 6.0083906 -0.86163929 11.30113565 -2.78877258 17.00796509 C-3.07673696 17.88036374 -3.36470134 18.7527624 -3.66139191 19.65159738 C-4.62303442 22.55871509 -5.59529608 25.46216403 -6.56762695 28.36572266 C-7.26139996 30.45545828 -7.95453973 32.54540422 -8.64709473 34.63554382 C-10.52653105 40.30088781 -12.41546997 45.96302018 -14.30663323 51.62445879 C-15.88513606 56.35283339 -17.45894524 61.0827644 -19.03274697 65.8127054 C-22.95726906 77.60735841 -26.89085186 89.39897165 -30.82872768 101.18917124 C-34.03329706 110.78462394 -37.22910254 120.38295947 -40.41870117 129.98339844 C-44.12648508 141.14353212 -47.84039498 152.30160433 -51.56297654 163.45681226 C-53.53211194 169.35772936 -55.49868621 175.2594678 -57.45873451 181.16341019 C-59.30153933 186.71305617 -61.15306993 192.25971432 -63.01136017 197.8041935 C-63.6917085 199.8389049 -64.36899415 201.87464333 -65.0429821 203.91147041 C-65.96377747 206.69250628 -66.89559771 209.46960713 -67.83027649 212.2460022 C-68.09420033 213.05184018 -68.35812418 213.85767816 -68.63004571 214.68793547 C-70.53013263 220.27605874 -72.58703722 225.11456012 -77.37074566 228.85245228 C-80.46946641 230.20490034 -82.69069112 230.36959715 -86.06806946 230.36076355 C-87.28658096 230.36488754 -88.50509247 230.36901154 -89.76052856 230.3732605 C-91.10248026 230.36264458 -92.4444297 230.35174018 -93.78637695 230.34057617 C-95.20581545 230.33972954 -96.62525526 230.34020574 -98.04469299 230.34190369 C-101.89149715 230.34276368 -105.73802012 230.3251374 -109.584759 230.30418181 C-113.60728797 230.28541566 -117.62982353 230.28366462 -121.65238953 230.28010559 C-129.26671808 230.27078494 -136.88091727 230.24617091 -144.49518889 230.21605712 C-153.1650128 230.18251372 -161.83484291 230.16602726 -170.50471556 230.15097082 C-188.33655036 230.11962135 -206.16826477 230.06686048 -224 230 C-223.505 229.01 -223.505 229.01 -223 228 C-222.26762525 227.99853344 -221.53525049 227.99706688 -220.78068256 227.99555588 C-202.96180678 227.95850703 -185.14312734 227.89951793 -167.32440662 227.81609726 C-158.70739745 227.77628491 -150.0904799 227.74390361 -141.47338867 227.72900391 C-133.96287253 227.71599873 -126.45255779 227.68906324 -118.94215506 227.64538693 C-114.9652663 227.6227464 -110.98862618 227.60709086 -107.01166725 227.60811615 C-103.26786228 227.60886125 -99.52460746 227.59097169 -95.78094482 227.55883217 C-93.75302446 227.54626074 -91.72501185 227.5534089 -89.69706726 227.56114197 C-87.88192123 227.54027275 -87.88192123 227.54027275 -86.03010559 227.51898193 C-84.45522228 227.51345118 -84.45522228 227.51345118 -82.84852314 227.50780869 C-79.10952024 226.8412534 -77.60395485 225.76614824 -75 223 C-73.78120681 220.34935775 -72.83316124 217.92131564 -71.95747375 215.16319275 C-71.69343935 214.37759842 -71.42940494 213.59200408 -71.15736949 212.78260386 C-70.28639632 210.17888131 -69.43888485 207.56813122 -68.59106445 204.95678711 C-67.97682501 203.10607639 -67.36102605 201.25588261 -66.74375629 199.40618038 C-65.45587191 195.53855045 -64.17733626 191.66801508 -62.90631485 187.79481125 C-61.10696023 182.31524305 -59.28121457 176.8448392 -57.44589233 171.37722778 C-54.11388839 161.4439222 -50.80380157 151.50341756 -47.49767089 141.56147504 C-45.85795556 136.63208859 -44.21615659 131.7033962 -42.57453918 126.77464294 C-38.44369508 114.37120456 -34.3154811 101.96689145 -30.1875 89.5625 C-25.68186162 76.02344157 -21.17570838 62.48455542 -16.66668111 48.94662517 C-14.72206319 43.1078004 -12.77890557 37.26849235 -10.8368839 31.42880356 C-9.63921712 27.82837389 -8.44032335 24.22835371 -7.24108696 20.62844658 C-6.68463299 18.95720631 -6.12869956 17.28579262 -5.57331467 15.61419678 C-4.81820834 13.34170847 -4.06127952 11.0698354 -3.30387878 8.79811096 C-3.0828844 8.13153286 -2.86189002 7.46495476 -2.63419884 6.77817732 C-1.85624158 4.44958908 -1.09953727 2.19907455 0 0 Z " fill="#6F2FED" transform="translate(264,254)"/>
<path d="M0 0 C1.43369958 4.30109875 -0.21880674 7.50210135 -1.61352539 11.63867188 C-1.90852118 12.53690674 -2.20351696 13.4351416 -2.50745201 14.3605957 C-3.50805708 17.39957063 -4.52161035 20.43406863 -5.53515625 23.46875 C-6.25618393 25.64888914 -6.97646561 27.82927512 -7.69606018 30.0098877 C-9.4809594 35.4111506 -11.27459025 40.809459 -13.07201225 46.20656633 C-14.59603021 50.78362664 -16.1157792 55.36208706 -17.63299561 59.94140625 C-17.8540679 60.60863236 -18.07514019 61.27585848 -18.30291164 61.96330357 C-18.7539893 63.32473811 -19.2050648 64.68617337 -19.65613818 66.04760933 C-24.8362362 81.67974931 -30.03925217 97.30421686 -35.2473141 112.92705822 C-37.22766158 118.86844364 -39.20457858 124.81096686 -41.18088382 130.75369787 C-43.11453491 136.56767706 -45.05046781 142.38089305 -46.9882198 148.19350672 C-48.13350452 151.62910699 -49.277871 155.06500618 -50.41988945 158.50169373 C-51.67430603 162.27632944 -52.93346097 166.04937436 -54.19311523 169.82226562 C-54.566465 170.94793442 -54.93981476 172.07360321 -55.32447815 173.23338318 C-55.83456924 174.75736473 -55.83456924 174.75736473 -56.35496521 176.31213379 C-56.65035911 177.19886024 -56.945753 178.0855867 -57.25009823 178.99918365 C-58 181 -58 181 -59 182 C-59.04092937 184.33297433 -59.04241723 186.66705225 -59 189 C-58.34 189 -57.68 189 -57 189 C-57 189.66 -57 190.32 -57 191 C-58.9375 190.625 -58.9375 190.625 -61 190 C-64.0530275 183.89394499 -59.96116496 175.22409106 -57.95715535 169.15708411 C-57.16467379 166.79242023 -56.36354434 164.43078454 -55.56225586 162.0690918 C-54.98989396 160.36025587 -54.41834671 158.65114691 -53.84754944 156.94178772 C-52.62122064 153.27494936 -51.38928148 149.61006301 -50.15290642 145.94659996 C-48.19853786 140.15526581 -46.25736723 134.35956136 -44.31800842 128.56318665 C-40.55203565 117.31344447 -36.77250383 106.06828122 -32.99172211 94.82350922 C-28.17408626 80.49242062 -23.36326368 66.1590529 -18.56324106 51.82205516 C-16.63306269 46.05831928 -14.69660719 40.29674216 -12.75521266 34.53677499 C-11.55078114 30.95963076 -10.35124477 27.38085903 -9.15299034 23.80164146 C-8.59555984 22.14005209 -8.03604434 20.47916055 -7.47431564 18.81901932 C-6.70907601 16.55654536 -5.95123116 14.29172516 -5.19517517 12.02616882 C-4.97018229 11.36693426 -4.74518941 10.7076997 -4.51337856 10.02848834 C-3.43961283 6.78445988 -3 4.47643327 -3 1 C-2.01 0.67 -1.02 0.34 0 0 Z " fill="#844EEF" transform="translate(98,292)"/>
<path d="M0 0 C0.99 0 1.98 0 3 0 C2.5359375 0.8353125 2.5359375 0.8353125 2.0625 1.6875 C-0.55490066 7.38419556 0.37863031 11.19452858 2.45535278 16.9344635 C2.72777951 17.71864289 3.00020624 18.50282227 3.28088832 19.31076467 C3.87443222 21.01499319 4.47350659 22.71730329 5.07742858 24.41788185 C6.38481415 28.10015765 7.66515102 31.79167366 8.94775546 35.48263913 C9.62087211 37.41838848 10.29543087 39.35363691 10.97136247 41.28840512 C14.43620991 51.21132261 17.77468882 61.17493655 21.09716797 71.14624023 C21.69807993 72.94603858 22.29912557 74.7457923 22.90030098 76.54550266 C24.44668706 81.17604398 25.99126476 85.80718619 27.53526068 90.43852496 C28.50957544 93.36074463 29.48432042 96.28282047 30.45920181 99.20485115 C33.87125712 109.43189037 37.28184046 119.65941896 40.69091797 129.88745117 C43.85696553 139.38620245 47.02641437 148.88381443 50.1973294 158.38094181 C52.94281988 166.60437603 55.6860202 174.82857181 58.42740738 183.05337483 C60.05559744 187.93819961 61.6847132 192.82271078 63.31615829 197.70644951 C64.83741912 202.26060735 66.355842 206.81570122 67.87202072 211.37155342 C68.42892628 213.04332055 68.9868655 214.71474373 69.54589081 216.38580322 C70.30548164 218.65692294 71.06140663 220.92922957 71.81637573 223.20188904 C72.04028295 223.86846714 72.26419018 224.53504524 72.49488246 225.22182268 C74 229.77172003 74 229.77172003 74 232 C73.34 232 72.68 232 72 232 C62.94982094 204.91785898 53.90422765 177.83419045 44.86505881 150.74837242 C43.79858254 147.55269584 42.73206706 144.35703236 41.66552734 141.16137695 C41.45319369 140.52516294 41.24086005 139.88894892 41.02209204 139.2334557 C37.5811746 128.92376734 34.13708006 118.61514301 30.69181603 108.30690648 C27.15833023 97.73447567 23.62831467 87.16088982 20.10133982 76.58628494 C18.11951181 70.64472051 16.13608902 64.70369904 14.14891052 58.76392174 C12.28023096 53.17817937 10.41573678 47.59105797 8.55450249 42.00283051 C7.86913367 39.94755231 7.18221135 37.89279143 6.49365425 35.83857918 C5.55677221 33.04276921 4.62539962 30.24518419 3.69543457 27.44706726 C3.41917724 26.6270338 3.14291991 25.80700034 2.85829115 24.96211737 C1.83422194 21.86517706 1 19.28472699 1 16 C0.34 16 -0.32 16 -1 16 C-1 15.01 -1 14.02 -1 13 C-1.99 13.33 -2.98 13.66 -4 14 C-3.71831703 12.04020573 -3.42433283 10.08217622 -3.125 8.125 C-2.96257812 7.03445312 -2.80015625 5.94390625 -2.6328125 4.8203125 C-2 2 -2 2 0 0 Z " fill="#EDE6FC" transform="translate(191,16)"/>
<path d="M0 0 C2.42613371 3.63920056 3.61375971 7.4304941 4.97390747 11.54750061 C5.26963209 12.43070006 5.56535671 13.31389952 5.87004268 14.22386259 C6.86313197 17.19348059 7.8497535 20.1652072 8.83642578 23.13696289 C9.54569327 25.26233833 10.25534816 27.38758453 10.96536255 29.51271057 C12.8949647 35.29209328 14.81889893 41.0733484 16.74168253 46.85500264 C18.75142909 52.89553592 20.76578895 58.93453058 22.7795105 64.97373962 C26.16033326 75.11532437 29.53758163 85.25809323 32.91259766 95.40161133 C36.38746123 105.84521354 39.86590364 116.28761505 43.34814453 126.72875977 C47.54194071 139.30345046 51.73274307 151.87913479 55.92077255 164.4557476 C57.52180141 169.26348949 59.12396807 174.07085 60.72702408 178.87791634 C62.61268088 184.53300914 64.49535402 190.18908647 66.37568283 195.84595299 C67.06803758 197.92727537 67.76142255 200.00825536 68.45588684 202.08887482 C69.40005021 204.91816458 70.34054249 207.74864771 71.28005981 210.57948303 C71.55884385 211.41205582 71.83762789 212.24462861 72.12485993 213.10243088 C74 218.77167099 74 218.77167099 74 221 C73.34 221 72.68 221 72 221 C62.99806034 194.06418453 54.00123948 167.12666414 45.01055145 140.18709087 C40.83613611 127.6793302 36.66003165 115.17213821 32.47998047 102.66625977 C28.8377176 91.76932243 25.19859337 80.87134298 21.56327391 69.9720872 C19.63733725 64.1981967 17.70980612 58.42484937 15.77851868 52.6527462 C13.96236836 47.2245928 12.15040438 41.79506052 10.3416996 36.36442184 C9.67568147 34.36719568 9.00811005 32.37048676 8.33890343 30.37432671 C7.42829501 27.6573395 6.52319792 24.93857838 5.61950684 22.21928406 C5.3510314 21.42259628 5.08255597 20.62590851 4.80594492 19.80507869 C3.79787084 16.75580437 3 14.23417815 3 11 C2.34 11 1.68 11 1 11 C-1.125 3.375 -1.125 3.375 0 0 Z " fill="#EDE5FC" transform="translate(265,249)"/>
<path d="M0 0 C1.15660629 -0.00845947 2.31321259 -0.01691895 3.50486755 -0.02563477 C5.41015228 -0.01652573 5.41015228 -0.01652573 7.35392761 -0.00723267 C8.70422796 -0.01129754 10.05452497 -0.01663895 11.40481567 -0.02316284 C15.07442806 -0.03685635 18.74378781 -0.03152851 22.4134047 -0.02202559 C26.25431901 -0.01443479 30.09521156 -0.02147341 33.93612671 -0.02618408 C40.38988631 -0.03164531 46.84354301 -0.0244425 53.29728699 -0.01016235 C60.752803 0.0061442 68.20807264 0.00089176 75.66358262 -0.01564157 C82.06625307 -0.02927079 88.46884948 -0.03116847 94.87152976 -0.02332556 C98.69468608 -0.01865424 102.51772678 -0.01800881 106.34087563 -0.02793503 C109.9385113 -0.03662262 113.53583076 -0.03055039 117.13343239 -0.01325226 C119.07886448 -0.0074134 121.02432341 -0.01628917 122.96974182 -0.02563477 C133.8523682 0.05338333 133.8523682 0.05338333 138.44059753 3.38095093 C139.31559753 5.56845093 139.31559753 5.56845093 139.44059753 7.38095093 C136.44059753 7.38095093 136.44059753 7.38095093 134.61771774 5.90587139 C131.79392732 3.92800366 130.03564991 3.99747696 126.60667419 3.98222351 C125.41477982 3.96968536 124.22288544 3.95714722 122.99487305 3.94422913 C121.69080002 3.94566422 120.38672699 3.9470993 119.0431366 3.94857788 C117.65339282 3.93955994 116.26365702 3.92923263 114.87393188 3.91769409 C111.10360686 3.89010145 107.33343267 3.88083656 103.56301975 3.87484002 C99.62182188 3.8654622 95.68073693 3.83925932 91.73960876 3.81483459 C84.27762004 3.77114955 76.8156532 3.74261494 69.35357547 3.71951121 C60.85781163 3.69247026 52.36216128 3.64855809 43.86647844 3.60322249 C26.39124321 3.51034751 8.91598348 3.43867987 -8.55940247 3.38095093 C-5.99155714 0.09200844 -4.07105237 0.0045722 0 0 Z " fill="#E2D6FB" transform="translate(203.5594024658203,14.619049072265625)"/>
<path d="M0 0 C22.63496053 -0.04667812 45.26991314 -0.08196827 67.90491199 -0.10362434 C78.41424479 -0.11394597 88.92354771 -0.12802321 99.43286133 -0.15087891 C108.59057452 -0.17078568 117.74826609 -0.18370998 126.90600032 -0.18817699 C131.75693385 -0.19078898 136.60780551 -0.19694662 141.45871925 -0.21146011 C146.02144456 -0.2250012 150.5840823 -0.2292297 155.14682579 -0.22621536 C156.82424266 -0.22676709 158.50166236 -0.23076517 160.17906189 -0.23841095 C162.46399118 -0.24831795 164.74858703 -0.24598457 167.03352356 -0.24050903 C168.31389401 -0.24235262 169.59426447 -0.24419621 170.91343403 -0.24609566 C174 0 174 0 177 2 C177.6875 5.625 177.6875 5.625 178 9 C175.22017379 7.6100869 175.12536659 5.81341647 174 3 C171.07653816 1.53826908 168.49574821 1.85842084 165.22970581 1.84178162 C164.52562595 1.83684364 163.8215461 1.83190566 163.09613049 1.82681805 C160.72538502 1.81140037 158.35466671 1.80307092 155.98388672 1.79467773 C154.28902953 1.78510256 152.59417475 1.7750927 150.89932251 1.76467896 C146.28803311 1.73758471 141.67673344 1.71659966 137.06540823 1.69667697 C132.25005807 1.67484524 127.43473977 1.64744282 122.61941528 1.62062073 C113.49634612 1.57065572 104.37325931 1.52573105 95.25015557 1.48259836 C84.86576338 1.43325849 74.48140315 1.37832833 64.09704185 1.32291877 C42.73139099 1.20904029 21.36570963 1.10221406 0 1 C0 0.67 0 0.34 0 0 Z " fill="#5F18EB" transform="translate(10,16)"/>
<path d="M0 0 C1.93884858 2.90827287 2.55990011 4.73017987 3.375 8.0625 C4.35834363 11.84191669 5.49041819 15.39889836 7 19 C8.81877415 23.35403509 10.03964683 27.71863338 11.21875 32.28125 C11.98577738 34.95050527 12.93012982 37.43879564 14 40 C15.81929154 44.35527369 17.04084883 48.7207892 18.21875 53.28515625 C18.98195205 55.93728337 19.92686896 58.39694356 21 60.9375 C24.21173306 68.72502264 27.09580737 76.61677051 25 85 C24.34 84.67 23.68 84.34 23 84 C23.04576675 82.83374084 23.09153351 81.66748169 23.13868713 80.46588135 C23.13236137 76.21358275 22.19359504 72.53514092 20.78100586 68.54589844 C20.54531387 67.84889832 20.30962189 67.15189819 20.06678772 66.43377686 C19.55815391 64.93478475 19.04397149 63.43766583 18.52473259 61.94231415 C17.70295982 59.57514255 16.89638722 57.20325528 16.09339905 54.82965088 C14.3882547 49.79844739 12.66376194 44.77398939 10.9375 39.75 C8.93321989 33.91204281 6.93695908 28.07152557 4.95749092 22.22510529 C4.16236147 19.88880966 3.35446878 17.5571914 2.54588318 15.2255249 C2.05985605 13.79606136 1.57439718 12.36640444 1.08959961 10.93652344 C0.44673256 9.06743317 0.44673256 9.06743317 -0.2091217 7.1605835 C-0.957973 4.16795231 -1.13150921 2.81077107 0 0 Z " fill="#EBE3FC" transform="translate(469,398)"/>
<path d="M0 0 C1.32695791 1.99043687 2.63966665 3.99045158 3.9375 6 C5.52483554 8.30885169 6.93736451 10.14362806 9 12 C8.01 12.33 7.02 12.66 6 13 C3.8125 11.75 3.8125 11.75 2 10 C2 9.01 2 8.02 2 7 C1.34 7 0.68 7 0 7 C-0.93423645 3.98968256 -1.04449911 3.13349732 0 0 Z " fill="#ECE3FC" transform="translate(339,471)"/>
<path d="M0 0 C1.17571451 3.67410785 1.07366746 7.16929183 1 11 C1.66 11 2.32 11 3 11 C3 11.66 3 12.32 3 13 C1.0625 12.625 1.0625 12.625 -1 12 C-2.24834144 9.50331711 -1.95155125 8.18670849 -1.625 5.4375 C-1.53476562 4.63183594 -1.44453125 3.82617188 -1.3515625 2.99609375 C-1 1 -1 1 0 0 Z " fill="#7539ED" transform="translate(38,470)"/>
<path d="M0 0 C0.66 0.33 1.32 0.66 2 1 C2.19622241 5.21878192 1.80230168 8.17010894 0 12 C-0.99 11.67 -1.98 11.34 -3 11 C-2 8 -1 5 0 2 C0 1.34 0 0.68 0 0 Z " fill="#9464F1" transform="translate(187,19)"/>
<path d="M0 0 C0.99 0.33 1.98 0.66 3 1 C2.38125 1.37125 1.7625 1.7425 1.125 2.125 C-1.5510596 4.48622906 -2.0936844 6.60131652 -3 10 C-3.33 10 -3.66 10 -4 10 C-4.25 7.25 -4.25 7.25 -4 4 C-2 1.625 -2 1.625 0 0 Z " fill="#6C2CEC" transform="translate(8,16)"/>
<path d="M0 0 C2.375 0.1875 2.375 0.1875 5 1 C6.3125 3.5625 6.3125 3.5625 7 6 C6.01 6 5.02 6 4 6 C3.71125 5.38125 3.4225 4.7625 3.125 4.125 C2.06279958 1.86674235 2.06279958 1.86674235 0 0 Z " fill="#B99BF6" transform="translate(336,16)"/>
<path d="M0 0 C2.56687367 3.8503105 1.83288724 5.58569763 1 10 C0.34 9.67 -0.32 9.34 -1 9 C-0.67 6.03 -0.34 3.06 0 0 Z " fill="#F3EEFD" transform="translate(493,473)"/>
</svg>
