<?xml version="1.0" encoding="UTF-8"?>
<svg version="1.1" xmlns="http://www.w3.org/2000/svg" width="500" height="500">
<path d="M0 0 C165 0 330 0 500 0 C500 165 500 330 500 500 C335 500 170 500 0 500 C0 335 0 170 0 0 Z " fill="#FEFEFE" transform="translate(0,0)"/>
<path d="M0 0 C1.19867706 -0.01134979 2.39735413 -0.02269958 3.63235474 -0.03439331 C4.94929825 -0.03146271 6.26624176 -0.0285321 7.62309265 -0.0255127 C9.02265604 -0.03285138 10.42221336 -0.04143702 11.82176208 -0.05117798 C15.62563842 -0.07342812 19.42929835 -0.07632281 23.23323083 -0.07443047 C26.40908492 -0.07431089 29.58489296 -0.08287023 32.76073426 -0.09120798 C40.25508669 -0.11045596 47.74932774 -0.11332138 55.24369812 -0.10656738 C62.97197942 -0.09993053 70.69978296 -0.12277304 78.42796737 -0.15988111 C85.06418811 -0.19058841 91.70025529 -0.20193689 98.33654565 -0.1980443 C102.29953557 -0.19597723 106.26215407 -0.20144844 110.22507668 -0.22593689 C113.95417691 -0.24821793 117.6825019 -0.24631591 121.41160583 -0.22600937 C123.42863669 -0.22097893 125.44568207 -0.24060973 127.46261597 -0.26101685 C129.27332077 -0.24420364 129.27332077 -0.24420364 131.12060547 -0.22705078 C132.16570943 -0.22776329 133.21081339 -0.2284758 134.28758717 -0.2292099 C138.18210879 0.59041258 140.60028881 2.53048006 143.2507782 5.39440918 C144.48768722 7.85525688 145.39595389 9.97637458 146.23663521 12.55703545 C146.48096472 13.25543004 146.72529423 13.95382463 146.97702766 14.67338269 C147.75344185 16.90785458 148.50275968 19.15029216 149.2507782 21.39440918 C149.7454465 22.83551712 150.24154655 24.27613442 150.73909736 25.7162497 C152.34787681 30.39854937 153.91308759 35.09497431 155.47706604 39.79238892 C156.08009417 41.59629214 156.68337692 43.40011027 157.2868892 45.20385158 C158.9292362 50.1149124 160.56790634 55.02719296 162.20590544 59.93970537 C163.97875972 65.25453958 165.7550266 70.56823331 167.53079224 75.88209534 C171.40345834 87.47305244 175.27165717 99.06549724 179.13886023 110.65827799 C181.55407871 117.89839426 183.97017825 125.1382163 186.38643265 132.37798691 C193.07992789 152.43411696 199.77232142 172.49061381 206.46052361 192.5485096 C206.89193049 193.84228699 207.32333747 195.13606436 207.75474454 196.42984169 C208.18714752 197.72660935 208.6195504 199.02337705 209.0519532 200.32014477 C209.91933256 202.92139778 210.78671466 205.52264986 211.65409851 208.12390137 C211.86915338 208.7688472 212.08420826 209.41379304 212.30577994 210.07828269 C219.29205659 231.02983784 226.2857191 251.97891725 233.28377218 272.92654164 C240.69103663 295.09916899 248.09178343 317.27395881 255.48502171 339.45126808 C259.51252363 351.531939 263.54293202 363.61162299 267.58076096 375.68884659 C271.0147695 385.9601382 274.44265516 396.23344705 277.86247711 406.50947125 C279.60779291 411.75325215 281.35603859 416.9960086 283.11209297 422.23620415 C284.71835065 427.02962672 286.31633147 431.82572416 287.90767087 436.62411927 C288.48576495 438.36233734 289.06692516 440.09953921 289.65140127 441.83562173 C290.44359548 444.19016337 291.22466785 446.54811171 292.00301933 448.90725899 C292.23393434 449.58481361 292.46484934 450.26236824 292.70276177 450.96045482 C293.98021597 454.87948157 294.66242749 458.27449915 294.2507782 462.39440918 C291.58298819 465.06219918 290.30592277 464.64997237 286.57711792 464.66183472 C284.76637535 464.67462967 284.76637535 464.67462967 282.91905212 464.68768311 C281.57414233 464.68698402 280.22923263 464.68606092 278.88432312 464.68493652 C277.4734359 464.69091836 276.06255196 464.6977231 274.65167236 464.70529175 C270.81271712 464.72299679 266.97385097 464.72764908 263.13485885 464.72892332 C259.93163206 464.73082019 256.72842612 464.7381755 253.52520734 464.74526751 C245.96716752 464.7615671 238.40917537 464.76643513 230.85112 464.76501465 C223.05304696 464.76381361 215.25525087 464.78490413 207.45724791 464.81650198 C200.7650272 464.84265346 194.07289697 464.85338238 187.38062555 464.85210383 C183.38248841 464.85159375 179.38459714 464.85730178 175.38651085 464.87845993 C171.62469851 464.8978229 167.86336699 464.89798051 164.1015377 464.88342667 C162.72166746 464.88133483 161.3417673 464.88606187 159.96194839 464.89814758 C158.07648945 464.91359078 156.1908667 464.90189714 154.3053894 464.8888855 C152.72334103 464.8905198 152.72334103 464.8905198 151.10933208 464.89218712 C147.39500734 464.24538843 145.96317475 463.00776977 143.2507782 460.39440918 C142.07561349 457.98497614 141.16870087 455.81153646 140.32700062 453.29428291 C140.07814867 452.5913766 139.82929672 451.88847029 139.5729038 451.16426379 C138.78170355 448.91318477 138.01464889 446.65489284 137.2507782 444.39440918 C136.7542043 442.95234122 136.25719142 441.51042435 135.75972974 440.06866241 C134.15529988 435.3872728 132.59272805 430.69227284 131.03121948 425.99642944 C130.42890868 424.19252476 129.82633847 422.38870669 129.22353441 420.58496678 C127.58311199 415.67390691 125.94638113 410.76162387 124.31031001 405.84911299 C122.53952121 400.53426635 120.76527601 395.22057356 118.99150085 389.90672302 C115.5242553 379.5176957 112.06027242 369.12758342 108.59754326 358.73704998 C105.78400781 350.29465744 102.96940902 341.85262013 100.15406227 333.41083145 C99.75273655 332.20744949 99.35141084 331.00406752 98.93792373 329.76421944 C98.12257437 327.31938314 97.30722431 324.87454707 96.49187354 322.42971124 C91.0239655 306.03376536 85.55721084 289.63743547 80.09284496 273.24030876 C79.87955154 272.60027211 79.66625811 271.96023546 79.44650125 271.30080377 C78.36558492 268.05724904 77.2846806 264.81369031 76.20378109 261.57012998 C75.98913008 260.92600584 75.77447906 260.28188171 75.55332347 259.61823866 C75.11924986 258.31567119 74.68517682 257.01310352 74.25110433 255.71053567 C67.48688573 235.41251475 60.71866923 215.1158308 53.9473114 194.82019043 C46.33161196 171.99379969 38.71891365 149.16641193 31.11062318 126.33755028 C27.08463584 114.25767415 23.05732218 102.17824408 19.0265255 90.09997177 C15.59843177 79.8275766 12.17346677 69.55414491 8.75258067 59.27934711 C7.00688082 54.03634173 5.25972318 48.79383401 3.5086689 43.55261421 C1.90683926 38.75792435 0.30914747 33.96187679 -1.28521558 29.16469909 C-1.86355838 27.42700743 -2.44343069 25.68982394 -3.02496169 23.95319663 C-3.81359925 21.5973423 -4.59669614 19.23971682 -5.37841511 16.88155937 C-5.72084709 15.86522743 -5.72084709 15.86522743 -6.0701969 14.82836354 C-7.31796898 11.04164516 -8.32270331 7.36465958 -8.7492218 3.39440918 C-6.64633916 -0.21453427 -3.91052619 0.01396706 0 0 Z " fill="#5E17EB" transform="translate(198.7492218017578,17.6055908203125)"/>
<path d="M0 0 C2.96233985 2.96233985 3.76210739 6.7086893 5.05656433 10.60792542 C5.36116162 11.5098328 5.66575891 12.41174018 5.97958642 13.34097809 C7.00413343 16.37978525 8.01999776 19.42142384 9.03588867 22.46313477 C9.76639538 24.63614799 10.49737898 26.80900094 11.22880554 28.98170471 C13.2181934 34.89730152 15.1995229 40.81556629 17.17847228 46.73466229 C18.41461521 50.4313774 19.65216782 54.12761762 20.89016151 57.8237133 C24.31805229 68.05893609 27.74386269 78.2948458 31.16128063 88.53357029 C31.38006519 89.18904569 31.59884974 89.84452108 31.82426413 90.51985937 C32.04356954 91.17690249 32.26287495 91.83394561 32.48882598 92.51089913 C32.93322077 93.84230964 33.37761928 95.17371891 33.82202148 96.50512695 C34.04245828 97.16555164 34.26289509 97.82597632 34.49001179 98.50641387 C38.0598901 109.20026709 41.64593539 119.88862213 45.23902401 130.57469643 C48.92855552 141.54836568 52.60421649 152.52659831 56.26699048 163.50922817 C58.32346401 169.67445461 60.38573473 175.83759479 62.46236229 181.99606514 C64.41608415 187.79134209 66.35256031 193.59209797 68.27598763 199.39749718 C68.98446609 201.5260161 69.69909393 203.65249968 70.42034149 205.77672577 C71.40513617 208.68027462 72.36736129 211.59039016 73.3243866 214.50318909 C73.61386537 215.3393998 73.90334415 216.17561051 74.20159501 217.03716093 C77.11865998 226.09043001 75.14993401 233.45526036 72.17999268 242.24211121 C71.88865031 243.12761494 71.59730794 244.01311868 71.29713702 244.92545587 C70.32541478 247.87140842 69.34099017 250.81294902 68.35644531 253.75463867 C67.65432814 255.87404059 66.95296201 257.99369143 66.25228882 260.11357117 C64.35157586 265.855808 62.43939632 271.59416327 60.52436924 277.33164001 C58.92566272 282.12454679 57.33232234 286.91923034 55.73889041 291.71389276 C51.76536774 303.6696186 47.78054853 315.62154264 43.79069027 327.57182274 C40.32881169 337.9419409 36.88175715 348.31691597 33.4416391 358.69427093 C29.90475466 369.36307502 26.35759956 380.0284167 22.80014491 390.69038373 C20.80477179 396.6710633 18.81343111 402.65300958 16.83219147 408.63838768 C14.96952501 414.26408143 13.09387491 419.88527793 11.20814896 425.50328255 C10.51858067 427.56488368 9.83360996 429.62802921 9.15359879 431.69280243 C8.22415265 434.51249159 7.27820941 437.32611151 6.32794189 440.13883972 C6.06303994 440.95566843 5.79813799 441.77249713 5.52520871 442.61407822 C3.68285582 447.98802501 1.35550152 453.32224924 -4 456 C-5.89588613 456.10009281 -7.79532869 456.13510133 -9.69384766 456.14044189 C-10.90534485 456.14615204 -12.11684204 456.15186218 -13.36505127 456.15774536 C-14.71472158 456.15899076 -16.064392 456.16011584 -17.4140625 456.16113281 C-18.82981496 456.16576003 -20.24556617 456.17078456 -21.66131592 456.17617798 C-25.51244814 456.18931061 -29.36356293 456.19574825 -33.21471405 456.20018864 C-35.61850724 456.20311709 -38.02229564 456.20722139 -40.42608643 456.21169281 C-47.9406984 456.22536807 -55.45529946 456.23503541 -62.96992302 456.2388947 C-71.65670925 456.24338008 -80.3433385 456.26095001 -89.03007698 456.2898953 C-95.73752735 456.31147312 -102.44493341 456.32159684 -109.15241814 456.32293582 C-113.16215925 456.32398637 -117.17175281 456.32994724 -121.18145752 456.34775543 C-124.95057175 456.36416965 -128.71942642 456.36642435 -132.48856354 456.35761642 C-133.87453148 456.35684254 -135.260513 456.36123472 -136.64644623 456.37107468 C-138.53297315 456.38368713 -140.41960319 456.37616499 -142.30615234 456.36749268 C-143.36361664 456.36895924 -144.42108093 456.3704258 -145.5105896 456.3719368 C-146.33209503 456.24919765 -147.15360046 456.12645851 -148 456 C-150.18791751 452.71812373 -150.33669892 451.79391658 -150 448 C-149.31176758 445.87653923 -149.31176758 445.87653923 -148.33203125 443.66940308 C-145.39464413 436.67645278 -143.07332943 429.48358977 -140.6875 422.28955078 C-140.16477327 420.72080529 -139.64178091 419.1521483 -139.11854553 417.58357239 C-137.704177 413.34103838 -136.29350482 409.09728368 -134.88350296 404.85329676 C-133.39253255 400.36777032 -131.89809957 395.88339773 -130.40405273 391.39889526 C-127.5650892 382.87579286 -124.72917801 374.35167816 -121.89438343 365.82718837 C-118.71512784 356.26732963 -115.5326162 346.70855606 -112.34975052 337.14989877 C-107.61929132 322.94346293 -102.89056606 308.73645168 -98.16404581 294.52870488 C-92.63633166 277.91286448 -87.10191895 261.29926787 -81.562989 244.68716323 C-78.22406745 234.67313823 -74.88615409 224.65877716 -71.54812765 214.64445376 C-69.56399498 208.69193487 -67.57981573 202.73943151 -65.59564209 196.78692627 C-64.76401498 194.29204567 -63.93238809 191.79716499 -63.10076141 189.30228424 C-62.67746577 188.03239727 -62.25417011 186.7625103 -61.83087444 185.49262333 C-61.61958633 184.85875898 -61.40829821 184.22489464 -61.19060743 183.57182229 C-40.79373829 122.38121486 -20.39686914 61.19060743 0 0 Z " fill="#000000" transform="translate(188,26)"/>
<path d="M0 0 C1.0785044 -0.00467997 1.0785044 -0.00467997 2.17879677 -0.00945449 C4.60023703 -0.017464 7.02142874 -0.01109948 9.44287109 -0.00482178 C11.17389066 -0.00753033 12.90490908 -0.0110905 14.63592529 -0.01544189 C19.3465633 -0.0245843 24.05711401 -0.02101404 28.7677536 -0.01468372 C33.68892153 -0.00963328 38.61008179 -0.0143125 43.53125 -0.01745605 C51.79672594 -0.0210985 60.06216619 -0.01628932 68.32763672 -0.0067749 C77.89455081 0.00411018 87.46137967 0.0005848 97.0282917 -0.01042771 C105.23042597 -0.01949268 113.43253451 -0.02078975 121.63467216 -0.01555037 C126.53862786 -0.01242631 131.44254344 -0.01203325 136.34649658 -0.01862335 C140.95604712 -0.02438471 145.56548737 -0.02042221 150.17502594 -0.00883484 C151.87059597 -0.00618175 153.56617523 -0.00696433 155.26174164 -0.01136017 C157.56882709 -0.01679163 159.87555479 -0.01001107 162.18261719 0 C164.12278214 0.00113108 164.12278214 0.00113108 166.10214233 0.002285 C169.09130859 0.25396729 169.09130859 0.25396729 171.09130859 2.25396729 C170.77977012 8.9032161 168.79439311 14.84056578 166.67492676 21.1111145 C166.31950884 22.18234594 165.96409093 23.25357737 165.59790277 24.35727036 C164.40815652 27.93706486 163.2077428 31.51318797 162.00732422 35.0894165 C161.15019314 37.65825703 160.29532332 40.22784858 159.44035339 42.79740906 C157.36013984 49.0448558 155.2720101 55.2896288 153.18125093 61.53355317 C150.74728953 68.80355934 148.32158119 76.0763104 145.89629942 83.34921576 C141.57031869 96.32109784 137.23743107 109.29066197 132.90039062 122.2588501 C128.69004605 134.84824076 124.48370588 147.43895888 120.28222656 160.03131104 C120.02318607 160.80768429 119.76414559 161.58405754 119.49725538 162.38395725 C118.45609602 165.50446114 117.41494773 168.62496872 116.37381819 171.74548256 C111.88817661 185.18968326 107.39922539 198.6327791 102.90985465 212.07573491 C102.18237762 214.25418303 101.45498002 216.43265765 100.72760201 218.61113882 C98.1828377 226.23242133 95.63708539 233.85337159 93.08852494 241.47338562 C92.03453192 244.62476267 90.98114397 247.77633947 89.92871666 250.92823982 C88.78977717 254.33887151 87.64899478 257.748881 86.50769043 261.15872192 C86.17277289 262.16297679 85.83785535 263.16723165 85.49278879 264.20191848 C85.18835903 265.11013323 84.88392926 266.01834799 84.57027435 266.9540844 C84.3069108 267.74184442 84.04354724 268.52960445 83.77220297 269.341236 C83.09130859 271.25396729 83.09130859 271.25396729 82.09130859 273.25396729 C81.43130859 273.25396729 80.77130859 273.25396729 80.09130859 273.25396729 C69.34644011 241.95617213 58.80128923 210.59331667 48.31787109 179.20709229 C47.91289005 177.99479793 47.507909 176.78250357 47.0906558 175.53347301 C43.260611 164.06834941 39.43144514 152.60293289 35.60511208 141.13656998 C34.73398687 138.52612145 33.86285113 135.91567643 32.99169922 133.30523682 C32.77532013 132.65684561 32.55894105 132.0084544 32.33600502 131.34041497 C28.79492301 120.72994897 25.24764429 110.12156479 21.69800587 99.5139586 C18.02621077 88.54094906 14.3601736 77.56603121 10.69939554 66.58934093 C8.65433861 60.45781938 6.60678795 54.32715748 4.55308914 48.19852448 C2.63397278 42.47111141 0.7218986 36.74139683 -1.18469048 31.00980186 C-1.88514601 28.90821374 -2.58817975 26.80748295 -3.29395103 24.70767403 C-4.25476835 21.8477757 -5.20634045 18.98496433 -6.15560913 16.12121582 C-6.43788058 15.28828357 -6.72015202 14.45535132 -7.01097715 13.5971787 C-9.46505318 6.13224989 -9.46505318 6.13224989 -8.90869141 2.25396729 C-6.03272223 -0.62200189 -4.02994406 0.00234938 0 0 Z " fill="#000000" transform="translate(15.90869140625,17.74603271484375)"/>
<path d="M0 0 C-0.309375 0.556875 -0.61875 1.11375 -0.9375 1.6875 C-3.56534059 7.40691775 -2.60710463 11.23519996 -0.52348137 16.99716282 C-0.24942693 17.78616339 0.0246275 18.57516396 0.30698662 19.38807365 C0.90325158 21.10038537 1.50505007 22.81077794 2.11171137 24.51943397 C3.0867552 27.26616299 4.04738305 30.01755409 5.00408852 32.77072054 C6.00388584 35.64787991 7.00438942 38.52476364 8.00908848 41.40021552 C11.34950562 50.96437355 14.57022421 60.56674882 17.77072144 70.17845154 C18.34329481 71.89434667 18.9160053 73.61019604 19.48884797 75.32600129 C20.9784342 79.78878312 22.46624551 84.25215464 23.95367932 88.71565425 C25.58700858 93.6158514 27.22207224 98.51546987 28.85687256 103.41517639 C32.03396221 112.93826125 35.20945587 122.46187748 38.38425945 131.98572468 C40.96263689 139.72037749 43.54149321 147.45487048 46.12067032 155.18925667 C53.45454614 177.18212405 60.7871932 199.17540053 68.11821447 221.16921961 C68.51055624 222.34628485 68.902898 223.5233501 69.30712891 224.73608398 C69.69995426 225.91460094 70.09277962 227.09311789 70.49750878 228.30734748 C76.90249782 247.52272346 83.31050141 266.73709265 89.7198218 285.95102429 C96.32179785 305.74261578 102.92155328 325.53494654 109.5189687 345.32805878 C113.21511528 356.41683063 116.91218745 367.50529191 120.61166 378.59295464 C123.75002372 387.99897832 126.88633907 397.4056818 130.01993679 406.8132944 C131.61847608 411.6121918 133.21800046 416.41075509 134.82011032 421.20846176 C136.28395494 425.59219669 137.74506776 429.97683185 139.20393671 434.36222506 C139.7340925 435.95424168 140.26527826 437.54591572 140.79755639 439.13722401 C141.51658307 441.28732707 142.23196213 443.43860873 142.94637871 445.59024715 C143.34584988 446.78844332 143.74532106 447.98663948 144.15689743 449.22114462 C145 452 145 452 145 454 C144.34 454 143.68 454 143 454 C133.99806034 427.06418453 125.00123948 400.12666414 116.01055145 373.18709087 C111.83613611 360.6793302 107.66003165 348.17213821 103.47998047 335.66625977 C99.8377176 324.76932243 96.19859337 313.87134298 92.56327391 302.9720872 C90.63733725 297.1981967 88.70980612 291.42484937 86.77851868 285.6527462 C84.96236836 280.2245928 83.15040438 274.79506052 81.3416996 269.36442184 C80.67568147 267.36719568 80.00811005 265.37048676 79.33890343 263.37432671 C78.42829501 260.6573395 77.52319792 257.93857838 76.61950684 255.21928406 C76.3510314 254.42259628 76.08255597 253.62590851 75.80594492 252.80507869 C74.79787084 249.75580437 74 247.23417815 74 244 C73.01 244 72.02 244 71 244 C64.45992336 263.59659663 57.92168916 283.1938071 51.38549614 302.79169941 C48.34881318 311.89664862 45.31157704 321.00141254 42.27294922 330.10571289 C25.17216526 381.24683301 25.17216526 381.24683301 8.40664101 432.49846554 C7.72680164 434.60089648 7.04315087 436.7020559 6.35894775 438.80307007 C5.3739919 441.82991347 4.41309545 444.86361981 3.45892334 447.90029907 C2.93760971 449.52909196 2.41599088 451.15778721 1.89404297 452.78637695 C1.66322588 453.53560267 1.43240879 454.2848284 1.19459724 455.05675793 C-0.6497583 460.75110249 -2.89322281 464.59548187 -8 468 C-10.60242748 468.23047829 -10.60242748 468.23047829 -13.78959656 468.20254517 C-15.60061859 468.19404793 -15.60061859 468.19404793 -17.44822693 468.18537903 C-18.7879967 468.16885752 -20.1277641 468.15214264 -21.4675293 468.13525391 C-22.87681473 468.12482877 -24.28610698 468.11529335 -25.69540405 468.10658264 C-29.52373241 468.08039179 -33.35184599 468.04172585 -37.18004203 468.00085878 C-41.17985161 467.96026842 -45.17974384 467.93109697 -49.17964172 467.90072632 C-56.75510209 467.84146557 -64.33043157 467.77190083 -71.90576822 467.69865549 C-80.52955173 467.61577291 -89.15341812 467.54434458 -97.77731073 467.47388959 C-115.5183298 467.32869278 -133.25919324 467.16907514 -151 467 C-151 466.67 -151 466.34 -151 466 C-150.27793271 465.99853344 -149.55586542 465.99706688 -148.8119173 465.99555588 C-131.2433914 465.95850616 -113.6750765 465.89951596 -96.10670948 465.81609726 C-87.61076859 465.7762858 -79.1149206 465.74390405 -70.61889648 465.72900391 C-63.21385428 465.71599826 -55.80901633 465.68906159 -48.40408915 465.64538693 C-44.48309091 465.62274743 -40.56234481 465.60709079 -36.64127541 465.60811615 C-32.94999684 465.60886131 -29.25927617 465.5909693 -25.56814194 465.55883217 C-23.56884888 465.54626223 -21.56946227 465.55340843 -19.57014465 465.56114197 C-17.78024109 465.54027275 -17.78024109 465.54027275 -15.95417786 465.51898193 C-14.91900434 465.51529476 -13.88383081 465.51160759 -12.8172884 465.50780869 C-9.09930749 464.83765259 -7.5927957 463.74944346 -5 461 C-3.78204059 458.34641712 -2.83473909 455.91540238 -1.95994568 453.15454102 C-1.696106 452.36826513 -1.43226632 451.58198925 -1.1604315 450.77188683 C-0.29009396 448.16654755 0.55698705 445.55423712 1.40454102 442.94140625 C2.01853809 441.09016216 2.63419569 439.23946808 3.25142002 437.38929749 C4.53894147 433.52339242 5.81794158 429.65482082 7.09059525 425.78399658 C8.88927409 420.32182038 10.72137487 414.87147785 12.56784058 409.42529297 C12.85925515 408.56555028 13.15066972 407.70580759 13.45091504 406.82001209 C14.04110877 405.07902567 14.63135766 403.33805795 15.22166145 401.59710884 C21.41435258 383.30986431 27.53893291 364.99939196 33.67073727 346.69166565 C37.17348689 336.23465284 40.68333435 325.78012423 44.2097168 315.33105469 C47.32718242 306.09362763 50.43201673 296.85207127 53.52149588 287.60524464 C55.14584473 282.74491716 56.77623095 277.88681929 58.42188835 273.03366089 C59.9586381 268.5009751 61.47832474 263.96292559 62.9851284 259.42020035 C63.53879865 257.76089004 64.09860739 256.10361298 64.66509628 254.4486351 C65.43913241 252.1842814 66.19038627 249.91353066 66.93663025 247.63989258 C67.16345031 246.99370437 67.39027038 246.34751616 67.62396377 245.68174648 C70.31739864 237.26867389 67.85103519 229.66107344 65.10838318 221.60362244 C64.80942943 220.70163465 64.51047568 219.79964686 64.20246273 218.8703261 C63.2052604 215.86888912 62.19531054 212.8719056 61.18530273 209.87475586 C60.46517901 207.71607821 59.74584919 205.55713558 59.0272522 203.39794922 C57.07881315 197.55091318 55.11930987 191.70763933 53.15778232 185.86498332 C51.10802206 179.75325248 49.06848049 173.63811364 47.02784729 167.52333069 C43.60289392 157.2649903 40.1716683 147.00877099 36.7355957 136.75415039 C33.1975073 126.1950163 29.66322764 115.63462001 26.1340332 105.07250977 C25.91624525 104.42072225 25.6984573 103.76893473 25.47406971 103.09739607 C24.38144111 99.8273409 23.28888704 96.55726083 22.19637001 93.28716838 C13.14246248 66.18757757 4.0753829 39.09240596 -5 12 C-7.80424478 18.80313418 -10.31363034 25.65702922 -12.62719727 32.64108276 C-12.96925013 33.66553249 -13.31130299 34.68998223 -13.66372108 35.74547589 C-14.80079767 39.15343113 -15.93360055 42.56279093 -17.06640625 45.97216797 C-17.88469591 48.42760163 -18.70325045 50.88294703 -19.52204895 53.33821106 C-21.28259142 58.61879262 -23.04094411 63.90009914 -24.79779053 69.18191147 C-27.35088591 76.85756247 -29.90735694 84.53208589 -32.46461201 92.20635189 C-36.63158866 104.71165619 -40.79589063 117.21784944 -44.95849609 129.72460938 C-48.97047247 141.77877684 -52.98365177 153.83254263 -56.99853516 165.88574219 C-57.24459405 166.62444431 -57.49065294 167.36314643 -57.74416816 168.12423347 C-58.98041654 171.83559191 -60.21669045 175.54694184 -61.45297813 179.25828719 C-63.88145903 186.54862387 -66.30978556 193.83901197 -68.73803711 201.12942505 C-68.97409577 201.8381505 -69.21015444 202.54687595 -69.4533664 203.27707793 C-74.60320755 218.73874929 -79.7509141 234.20113111 -84.8984375 249.66357422 C-91.47571321 269.42066913 -98.05631719 289.17664802 -104.6431427 308.93056107 C-106.77583889 315.32665401 -108.90777226 321.72300124 -111.03979635 328.11931825 C-112.25247513 331.7574724 -113.46519856 335.39561167 -114.67791748 339.03375244 C-115.17133353 340.51399987 -115.66474936 341.99424737 -116.15816498 343.47449493 C-128.77210999 381.31632996 -141.38605499 419.15816498 -154 457 C-156 454 -156 454 -155.72474861 451.86414814 C-155.47076742 451.02261283 -155.21678623 450.18107752 -154.95510864 449.31404114 C-154.66054905 448.32887323 -154.36598946 447.34370533 -154.06250381 446.32868385 C-151.99766332 439.85981182 -149.88142331 433.4118582 -147.71826172 426.9753418 C-147.18715486 425.38750717 -146.65632985 423.79957824 -146.12576294 422.21156311 C-144.98980551 418.81334462 -143.85201553 415.41574747 -142.71279526 412.01862144 C-140.9108234 406.64470163 -139.11384474 401.26912034 -137.31765747 395.89326477 C-132.85853979 382.54988359 -128.39376105 369.20839778 -123.92614746 355.86785889 C-120.44732859 345.47986831 -116.97043078 335.09124465 -113.49985707 324.70049602 C-111.71512892 319.35782167 -109.92624672 314.01656228 -108.13421988 308.67633188 C-107.02126149 305.35665633 -105.91206267 302.03573373 -104.80390549 298.71445274 C-104.28989553 297.17643884 -103.77433568 295.63894191 -103.25710297 294.10200882 C-102.55059348 292.00192714 -101.84969061 289.90005335 -101.15011597 287.7976532 C-100.75671965 286.62282725 -100.36332333 285.44800131 -99.95800591 284.23757458 C-99.04722477 281.15959578 -98.45075683 278.17480466 -98 275 C-97.34 275 -96.68 275 -96 275 C-95.73856052 274.00400709 -95.73856052 274.00400709 -95.47183943 272.9878931 C-93.65249858 266.17336987 -91.590162 259.47779137 -89.35656738 252.78881836 C-89.00085175 251.71572922 -88.64513612 250.64264008 -88.27864122 249.53703308 C-87.09549323 245.97035627 -85.9081231 242.40510039 -84.72070312 238.83984375 C-83.86744708 236.27187517 -83.01505399 233.70362032 -82.1625824 231.13539124 C-79.85395329 224.18248279 -77.54086901 217.23106173 -75.22678185 210.27996826 C-73.78133256 205.93807852 -72.33676408 201.59589607 -70.89234924 197.25366211 C-66.88998619 185.22222126 -62.88650225 173.19115473 -58.8788681 161.16146851 C-58.62304597 160.39356298 -58.36722384 159.62565746 -58.10364953 158.83448207 C-57.84723973 158.06481613 -57.59082993 157.29515018 -57.32665014 156.50216103 C-56.80712037 154.94268479 -56.28759246 153.38320794 -55.76806641 151.82373047 C-55.51036636 151.05018746 -55.25266631 150.27664445 -54.98715717 149.47966075 C-50.8021984 136.91687088 -46.62536548 124.35139546 -42.45198137 111.7847563 C-38.16344084 98.87175229 -33.86817909 85.96100029 -29.56612158 73.0524931 C-27.15217684 65.80882442 -24.74115035 58.5642132 -22.33753967 51.31710815 C-20.29352351 45.15432008 -18.2433991 38.99360766 -16.1851927 32.83554345 C-15.1351915 29.69337103 -14.08913146 26.54998164 -13.04890251 23.40455818 C-11.92200869 19.99865236 -10.78418295 16.5965977 -9.64343262 13.1953125 C-9.315705 12.19601684 -8.98797738 11.19672117 -8.65031862 10.16714382 C-8.18955093 8.80461027 -8.18955093 8.80461027 -7.71947479 7.41455078 C-7.45795482 6.62879669 -7.19643485 5.8430426 -6.92699003 5.03347778 C-5.26535945 1.38846678 -4.08067655 0 0 0 Z " fill="#E6DEF7" transform="translate(194,16)"/>
<path d="M0 0 C0.33 0 0.66 0 1 0 C1.47131988 6.46866363 -0.22671786 11.64684735 -2.29803467 17.73588562 C-2.65300404 18.80677471 -3.00797341 19.87766379 -3.37369943 20.98100406 C-4.56567424 24.56845632 -5.77259049 28.15069877 -6.97949219 31.7331543 C-7.83893087 34.30559514 -8.69519502 36.87908969 -9.55158997 39.45254517 C-11.39941775 44.99969838 -13.25491925 50.54423598 -15.11565399 56.08707237 C-17.81907208 64.14018925 -20.51074412 72.19719384 -23.19965652 80.255164 C-27.5801369 93.38127579 -31.96997747 106.50423716 -36.36572266 119.62524414 C-40.60520903 132.2798973 -44.84049383 144.9359429 -49.06982422 157.59399414 C-49.32888199 158.36932838 -49.58793976 159.14466262 -49.85484776 159.94349184 C-51.15621193 163.83843866 -52.45748702 167.73341524 -53.7587142 171.62840784 C-56.31356757 179.2758442 -58.86896327 186.92309932 -61.42462158 194.57026672 C-61.67300912 195.31350625 -61.92139666 196.05674578 -62.17731109 196.82250772 C-67.38356875 212.40043244 -72.59658159 227.97609378 -77.81063521 243.55141051 C-84.77468972 264.35433315 -91.72957641 285.16024235 -98.65950775 305.97455788 C-100.78423478 312.35579286 -102.9116743 318.73612391 -105.03877354 325.11656845 C-106.25192033 328.75559684 -107.46491109 332.39467724 -108.67791748 336.03375244 C-109.17133256 337.51400019 -109.6647484 338.99424769 -110.15816498 340.47449493 C-110.40604735 341.21814206 -110.65392973 341.96178919 -110.90932369 342.72797108 C-123.27288246 379.81864738 -135.63644123 416.90932369 -148 454 C-150 451 -150 451 -149.72474861 448.86414814 C-149.47076742 448.02261283 -149.21678623 447.18107752 -148.95510864 446.31404114 C-148.66054905 445.32887323 -148.36598946 444.34370533 -148.06250381 443.32868385 C-145.99766332 436.85981182 -143.88142331 430.4118582 -141.71826172 423.9753418 C-141.18715486 422.38750717 -140.65632985 420.79957824 -140.12576294 419.21156311 C-138.98980551 415.81334462 -137.85201553 412.41574747 -136.71279526 409.01862144 C-134.9108234 403.64470163 -133.11384474 398.26912034 -131.31765747 392.89326477 C-126.85853979 379.54988359 -122.39376105 366.20839778 -117.92614746 352.86785889 C-114.44732859 342.47986831 -110.97043078 332.09124465 -107.49985707 321.70049602 C-105.71512892 316.35782167 -103.92624672 311.01656228 -102.13421988 305.67633188 C-101.02126149 302.35665633 -99.91206267 299.03573373 -98.80390549 295.71445274 C-98.28989553 294.17643884 -97.77433568 292.63894191 -97.25710297 291.10200882 C-96.55059348 289.00192714 -95.84969061 286.90005335 -95.15011597 284.7976532 C-94.75671965 283.62282725 -94.36332333 282.44800131 -93.95800591 281.23757458 C-93.04722477 278.15959578 -92.45075683 275.17480466 -92 272 C-91.34 272 -90.68 272 -90 272 C-89.82594122 271.33623893 -89.65188243 270.67247786 -89.47254914 269.98860282 C-87.65167237 263.16461526 -85.58132384 256.46380402 -83.33638 249.76863098 C-82.97854768 248.69342514 -82.62071535 247.6182193 -82.25203961 246.51043147 C-81.06190183 242.93674496 -79.86750395 239.3644976 -78.6730957 235.79223633 C-77.81492837 233.21941544 -76.95766945 230.64629211 -76.10037231 228.07318115 C-74.25913013 222.54840982 -72.4157058 217.02437062 -70.57076454 211.50083351 C-67.90334695 203.51488835 -65.2392741 195.52783056 -62.57599606 187.54050406 C-58.25410401 174.57919677 -53.92953724 161.61878357 -49.60327148 148.65893555 C-45.40264041 136.07542207 -41.2032796 123.49148587 -37.00561523 110.90698242 C-36.74653479 110.13026653 -36.48745434 109.35355065 -36.22052298 108.55329791 C-34.9207 104.65643919 -33.62090187 100.75957219 -32.32111609 96.86270106 C-21.5512627 64.57384822 -10.77706139 32.28644774 0 0 Z " fill="#D4D4D4" transform="translate(188,19)"/>
<path d="M0 0 C4.80063131 2.04491164 6.10873558 5.34245057 8 10 C9.82806703 14.95043546 11.49793807 19.94865358 13.15730286 24.95724487 C13.6683126 26.48494448 14.17984372 28.01246978 14.69184893 29.53983605 C16.09253348 33.72329281 17.48574896 37.9092038 18.87770927 42.09557009 C20.38185601 46.61501006 21.89290384 51.13214243 23.40304565 55.64958191 C26.35776238 64.49210417 29.30595355 73.33678875 32.25173972 82.18228965 C34.64475446 89.36763377 37.0399991 96.55223084 39.43683434 103.73630142 C39.77795053 104.75874835 40.11906673 105.78119529 40.47051978 106.83462546 C41.16346697 108.91161586 41.85641758 110.98860512 42.54937156 113.06559326 C49.04431313 132.53384541 55.53166759 152.00461934 62.01658299 171.47621311 C67.95568577 189.30823627 73.90359967 207.13730556 79.85576002 224.96497403 C85.96480341 243.2627514 92.06834663 261.56235439 98.16571635 279.86402524 C98.85455064 281.93155069 99.54339332 283.99907334 100.23224449 286.06659317 C100.57119082 287.08390853 100.91013714 288.1012239 101.25935457 289.149367 C103.6529961 296.33246018 106.05023543 303.51434677 108.44889259 310.69576645 C111.36851837 319.43717797 114.28290459 328.18031451 117.19043849 336.92575578 C118.67512979 341.39102087 120.16226622 345.85543296 121.65586281 350.31772804 C123.02091353 354.39619301 124.37911459 358.47686976 125.73170861 362.55948223 C126.22423184 364.04197416 126.71933108 365.52361306 127.21715484 367.00433348 C127.88942842 369.00515848 128.55254003 371.00878486 129.21328449 373.01344109 C129.77106884 374.68719868 129.77106884 374.68719868 130.34012157 376.39476955 C131 379 131 379 130 381 C128 380 128 380 126.96752608 377.51666671 C126.596809 376.39936445 126.22609193 375.28206219 125.84414101 374.13090229 C125.63536174 373.50853614 125.42658247 372.88616998 125.21147656 372.24494424 C124.5061005 370.13609772 123.81158031 368.02382931 123.11685181 365.91145325 C122.61127201 364.39259983 122.10502845 362.87396723 121.59817445 361.35553855 C120.20128854 357.16441554 118.81379678 352.97023259 117.42771721 348.77552545 C115.93345074 344.25891909 114.43053601 339.7451918 112.92857361 335.23114014 C110.32496067 327.40242201 107.72665387 319.57195911 105.13170242 311.74036598 C101.37725051 300.40994111 97.61286639 289.08283535 93.84566574 277.75664373 C87.73117427 259.37291231 81.62206347 240.98739817 75.51757812 222.6003418 C75.15191275 221.49894431 74.78624738 220.39754682 74.40950124 219.26277366 C70.33106196 206.97810015 66.25343952 194.69315562 62.1762085 182.40808105 C60.69855903 177.9558813 59.22087592 173.50369272 57.74316406 169.05151367 C57.37855067 167.95296745 57.01393727 166.85442122 56.63827498 165.72258572 C50.56063898 147.41192369 44.47598754 129.10360093 38.38606679 110.79702109 C34.62796166 99.49890946 30.87610356 88.19875994 27.13221966 76.89592763 C24.56612145 69.150252 21.99363666 61.40671707 19.41609479 53.66484211 C17.92845934 49.19584602 16.44383827 44.72590538 14.96708107 40.25330162 C13.61522466 36.15914565 12.25510631 32.06783297 10.88836043 27.97862431 C10.39528084 26.49845057 9.90526347 25.0172525 9.41861863 23.53495071 C8.75656928 21.51985425 8.08347373 19.508778 7.40754128 17.49830341 C7.0364995 16.38018939 6.66545772 15.26207537 6.28317225 14.11007911 C4.88654768 10.72502079 3.11603775 7.98068823 1 5 C0.34 4.01 -0.32 3.02 -1 2 C-0.67 1.34 -0.34 0.68 0 0 Z " fill="#EEE7FD" transform="translate(338,16)"/>
<path d="M0 0 C0.66 0 1.32 0 2 0 C2.33 1.65 2.66 3.3 3 5 C2.34 5 1.68 5 1 5 C-5.54007664 24.59659663 -12.07831084 44.1938071 -18.61450386 63.79169941 C-21.65118682 72.89664862 -24.68842296 82.00141254 -27.72705078 91.10571289 C-44.82783474 142.24683301 -44.82783474 142.24683301 -61.59335899 193.49846554 C-62.27319836 195.60089648 -62.95684913 197.7020559 -63.64105225 199.80307007 C-64.6260081 202.82991347 -65.58690455 205.86361981 -66.54107666 208.90029907 C-67.06239029 210.52909196 -67.58400912 212.15778721 -68.10595703 213.78637695 C-68.33677412 214.53560267 -68.56759121 215.2848284 -68.80540276 216.05675793 C-70.6497583 221.75110249 -72.89322281 225.59548187 -78 229 C-80.60242748 229.23047829 -80.60242748 229.23047829 -83.78959656 229.20254517 C-85.60061859 229.19404793 -85.60061859 229.19404793 -87.44822693 229.18537903 C-88.7879967 229.16885752 -90.1277641 229.15214264 -91.4675293 229.13525391 C-92.87681473 229.12482877 -94.28610698 229.11529335 -95.69540405 229.10658264 C-99.52373241 229.08039179 -103.35184599 229.04172585 -107.18004203 229.00085878 C-111.17985161 228.96026842 -115.17974384 228.93109697 -119.17964172 228.90072632 C-126.75510209 228.84146557 -134.33043157 228.77190083 -141.90576822 228.69865549 C-150.52955173 228.61577291 -159.15341812 228.54434458 -167.77731073 228.47388959 C-185.5183298 228.32869278 -203.25919324 228.16907514 -221 228 C-221 227.67 -221 227.34 -221 227 C-220.27793271 226.99853344 -219.55586542 226.99706688 -218.8119173 226.99555588 C-201.2433914 226.95850616 -183.6750765 226.89951596 -166.10670948 226.81609726 C-157.61076859 226.7762858 -149.1149206 226.74390405 -140.61889648 226.72900391 C-133.21385428 226.71599826 -125.80901633 226.68906159 -118.40408915 226.64538693 C-114.48309091 226.62274743 -110.56234481 226.60709079 -106.64127541 226.60811615 C-102.94999684 226.60886131 -99.25927617 226.5909693 -95.56814194 226.55883217 C-93.56884888 226.54626223 -91.56946227 226.55340843 -89.57014465 226.56114197 C-88.37687561 226.54722916 -87.18360657 226.53331635 -85.95417786 226.51898193 C-84.91900434 226.51529476 -83.88383081 226.51160759 -82.8172884 226.50780869 C-79.09968865 225.83772129 -77.59290542 224.74868529 -75 222 C-73.78120272 219.34976772 -72.83316859 216.92215707 -71.95747375 214.16442871 C-71.69343935 213.37893174 -71.42940494 212.59343477 -71.15736949 211.78413486 C-70.28638155 209.18063919 -69.43887134 206.57011157 -68.59106445 203.95898438 C-67.97681738 202.10834769 -67.36101854 200.25822541 -66.74375629 198.40859222 C-65.45579956 194.54069618 -64.17725582 190.66987623 -62.90631485 186.7963562 C-61.10648033 181.3141529 -59.2807895 175.84091461 -57.44589233 170.37036133 C-54.11367695 160.42843318 -50.80391255 150.47913457 -47.49767089 140.52854347 C-45.85816026 135.59595196 -44.21627951 130.66414955 -42.57453918 125.7322998 C-37.0267528 109.06515263 -31.48285677 92.39671261 -25.94116211 75.72753906 C-22.85186119 66.43514115 -19.7604265 57.14345585 -16.66668111 47.85253668 C-14.72094118 42.00878656 -12.77790154 36.16414787 -10.8368839 30.31882763 C-9.64017739 26.71703353 -8.4409951 23.11606752 -7.24108696 19.5153389 C-6.68410648 17.842241 -6.12816573 16.16879658 -5.57331467 14.4949913 C-4.81957718 12.22168925 -4.062211 9.94962912 -3.30387878 7.67785645 C-3.0828844 7.0083655 -2.86189002 6.33887456 -2.63419884 5.64909601 C-1.11411022 1.11411022 -1.11411022 1.11411022 0 0 Z " fill="#DBDADB" transform="translate(264,255)"/>
<path d="M0 0 C0.66 0 1.32 0 2 0 C2.17434309 0.73618702 2.34868617 1.47237405 2.52831239 2.23086977 C4.25469014 9.34858725 6.29030528 16.27606764 8.63911438 23.21081543 C8.99427429 24.27180277 9.3494342 25.33279012 9.71535653 26.42592859 C10.89489588 29.94621537 12.08088936 33.46429227 13.2668457 36.98242188 C14.11824841 39.51939663 14.96926689 42.05649697 15.81974792 44.59378052 C17.64564261 50.03907181 19.47452798 55.48335076 21.30517006 60.92704773 C24.1977684 69.52960259 27.0805317 78.13543799 29.9617157 86.74182129 C30.94912445 89.69092435 31.9365897 92.64000849 32.9240675 95.58908844 C33.17074699 96.32580244 33.41742649 97.06251644 33.67158112 97.82155511 C36.47262957 106.18656583 39.27551731 114.55095976 42.0793457 122.91503906 C42.33536669 123.67878241 42.59138768 124.44252576 42.85516687 125.22941285 C47.01479388 137.63722256 51.18235027 150.04235802 55.35197721 162.44681019 C59.63671234 175.19461401 63.90999198 187.94621983 68.17335385 200.70118761 C70.80198486 208.56401981 73.44000305 216.42357635 76.09010132 224.27919978 C77.90222076 229.65342606 79.70348666 235.03120993 81.49614439 240.41195899 C82.53130565 243.51789556 83.57298247 246.62137688 84.62450027 249.72182083 C85.76208848 253.07846747 86.88123005 256.44070828 87.99580383 259.80505371 C88.33420471 260.78908157 88.67260559 261.77310943 89.02126104 262.78695631 C89.31500086 263.68623618 89.60874069 264.58551604 89.91138172 265.51204681 C90.17176253 266.28776582 90.43214334 267.06348483 90.70041448 267.86271048 C91.07438566 270.53067882 90.39816894 271.74899943 89 274 C88.73810631 273.05221554 88.47621262 272.10443108 88.20638275 271.12792587 C86.84157817 266.35715065 85.26813632 261.65954919 83.69787598 256.95318604 C83.36681052 255.95701854 83.03574506 254.96085104 82.69464731 253.93449664 C81.58757267 250.6046174 80.47836368 247.27545321 79.36914062 243.94628906 C78.57395575 241.5561043 77.77888933 239.16588012 76.9839325 236.77561951 C74.82642372 230.28999249 72.66693501 223.80502664 70.50681877 217.32026768 C69.15801879 213.27110085 67.80966019 209.22178714 66.46138 205.1724472 C62.72735263 193.95818243 58.99276182 182.74410566 55.25609589 171.53071976 C55.01729274 170.81409075 54.7784896 170.09746175 54.53244999 169.35911672 C54.29308632 168.64080744 54.05372265 167.92249815 53.80710554 167.18242192 C53.32208636 165.72692091 52.83706811 164.2714196 52.35205078 162.81591797 C52.11146661 162.09394402 51.87088244 161.37197007 51.62300783 160.62811813 C47.71865391 148.91110228 43.81835873 137.19273971 39.91979653 125.47379568 C35.91607285 113.43893286 31.90898745 101.40519374 27.89850569 89.37258124 C25.64719582 82.61773417 23.39734462 75.86240897 21.15119934 69.10584259 C19.04095265 62.75812841 16.92612792 56.41195827 14.80814552 50.06682014 C14.03015316 47.73361698 13.25371046 45.39989645 12.47890282 43.06563377 C11.42411253 39.88865166 10.36384247 36.71355165 9.30212402 33.53887939 C8.84015869 32.14089878 8.84015869 32.14089878 8.36886072 30.71467614 C7.94150511 29.44249407 7.94150511 29.44249407 7.50551605 28.14461136 C7.26130086 27.41136871 7.01708568 26.67812605 6.76547003 25.92266393 C5.96904211 23.72867531 5.96904211 23.72867531 4 21 C3.63451555 19.67511887 3.3062434 18.33981486 3 17 C2.67 16.030625 2.34 15.06125 2 14.0625 C0.42364443 9.23491108 -0.11823184 5.083969 0 0 Z " fill="#D9D9D9" transform="translate(5,19)"/>
<path d="M0 0 C0.66 0.33 1.32 0.66 2 1 C1.45367045 6.40480797 0.47184077 11.30260104 -1.28419495 16.45385742 C-1.51781186 17.15898027 -1.75142877 17.86410313 -1.99212497 18.59059334 C-2.7696404 20.93131569 -3.55775776 23.26832119 -4.34594727 25.60546875 C-4.9083087 27.29114145 -5.47000816 28.97703513 -6.03109741 30.66313171 C-7.55114085 35.22469311 -9.08039632 39.78311772 -10.61135221 44.34102631 C-12.2116088 49.11048236 -13.80333711 53.88278279 -15.39598083 58.65478516 C-18.41091623 67.68406781 -21.43348813 76.71077459 -24.45882696 85.73657608 C-27.90365344 96.01511621 -31.33993426 106.29650637 -34.77550805 116.57814217 C-41.84084933 137.72194149 -48.91688922 158.86214731 -56 180 C-58 177 -58 177 -57.72474861 174.86526394 C-57.47076742 174.02401502 -57.21678623 173.18276609 -56.95510864 172.31602478 C-56.51326925 170.83825971 -56.51326925 170.83825971 -56.06250381 169.33064079 C-53.99553803 162.85130353 -51.88066306 156.39158951 -49.71826172 149.94360352 C-49.18716545 148.35252013 -48.65634011 146.76134628 -48.12576294 145.17008972 C-46.98986142 141.76530113 -45.85208157 138.3611484 -44.71279526 134.95749092 C-42.91134975 129.57554233 -41.11422539 124.1921569 -39.31765747 118.80857849 C-36.47733159 110.29894707 -33.63419936 101.79025643 -30.7898246 93.28197759 C-25.68985491 78.02653159 -20.59330806 62.7699427 -15.49985707 47.51231903 C-13.71288597 42.15981187 -11.92423169 36.80787101 -10.13421988 31.45638001 C-9.02320525 28.13396946 -7.91340378 24.81115457 -6.80390549 21.48823738 C-6.28883933 19.94651214 -5.77325012 18.40496154 -5.25710297 16.86359787 C-4.5533922 14.76190529 -3.85152967 12.65960427 -3.15011597 10.55714417 C-2.75671965 9.38047463 -2.36332333 8.2038051 -1.95800591 6.99147892 C-1.21373842 4.66742176 -0.54635885 2.37627436 0 0 Z " fill="#CECECE" transform="translate(96,293)"/>
<path d="M0 0 C1.93884858 2.90827287 2.55990011 4.73017987 3.375 8.0625 C4.35834363 11.84191669 5.49041819 15.39889836 7 19 C8.81877415 23.35403509 10.03964683 27.71863338 11.21875 32.28125 C11.98577738 34.95050527 12.93012982 37.43879564 14 40 C15.81929154 44.35527369 17.04084883 48.7207892 18.21875 53.28515625 C18.98195205 55.93728337 19.92686896 58.39694356 21 60.9375 C24.21173306 68.72502264 27.09580737 76.61677051 25 85 C24.34 84.67 23.68 84.34 23 84 C23.04576675 82.83374084 23.09153351 81.66748169 23.13868713 80.46588135 C23.13236137 76.21358275 22.19359504 72.53514092 20.78100586 68.54589844 C20.54531387 67.84889832 20.30962189 67.15189819 20.06678772 66.43377686 C19.55815391 64.93478475 19.04397149 63.43766583 18.52473259 61.94231415 C17.70295982 59.57514255 16.89638722 57.20325528 16.09339905 54.82965088 C14.3882547 49.79844739 12.66376194 44.77398939 10.9375 39.75 C8.93321989 33.91204281 6.93695908 28.07152557 4.95749092 22.22510529 C4.16236147 19.88880966 3.35446878 17.5571914 2.54588318 15.2255249 C2.05985605 13.79606136 1.57439718 12.36640444 1.08959961 10.93652344 C0.44673256 9.06743317 0.44673256 9.06743317 -0.2091217 7.1605835 C-0.957973 4.16795231 -1.13150921 2.81077107 0 0 Z " fill="#EBE3FC" transform="translate(469,398)"/>
<path d="M0 0 C0 0.66 0 1.32 0 2 C45.87 2 91.74 2 139 2 C139 2.33 139 2.66 139 3 C120.6504347 3.04667146 102.30088475 3.08196498 83.95127296 3.10362434 C75.43168786 3.1139474 66.91213959 3.12802732 58.39257812 3.15087891 C50.96899306 3.17078136 43.54543467 3.18370895 36.12182367 3.18817699 C32.18921063 3.19078972 28.25667388 3.19695198 24.32408524 3.21146011 C20.62563459 3.22499444 16.92729195 3.22923111 13.22881889 3.22621536 C11.21816 3.2270314 9.20751298 3.23781468 7.19688416 3.24884033 C6.00773911 3.246091 4.81859406 3.24334167 3.59341431 3.24050903 C2.03650596 3.24327441 2.03650596 3.24327441 0.44814491 3.24609566 C-2 3 -2 3 -4 1 C-2 0 -2 0 0 0 Z " fill="#EFEFEF" transform="translate(43,482)"/>
<path d="M0 0 C3.42717768 1.38530129 4.7293493 2.67477227 6.3125 6 C6.65925781 6.70125 7.00601562 7.4025 7.36328125 8.125 C7.67845703 9.053125 7.67845703 9.053125 8 10 C7.67 10.66 7.34 11.32 7 12 C4.81907964 9.92141021 3.03609531 7.78143382 1.3125 5.3125 C0.87550781 4.68988281 0.43851562 4.06726563 -0.01171875 3.42578125 C-0.33785156 2.95527344 -0.66398437 2.48476563 -1 2 C-0.67 1.34 -0.34 0.68 0 0 Z " fill="#E5DDF4" transform="translate(338,16)"/>
<path d="M0 0 C1.32695791 1.99043687 2.63966665 3.99045158 3.9375 6 C5.52483554 8.30885169 6.93736451 10.14362806 9 12 C8.01 12.33 7.02 12.66 6 13 C3.8125 11.75 3.8125 11.75 2 10 C2 9.01 2 8.02 2 7 C1.34 7 0.68 7 0 7 C-0.93423645 3.98968256 -1.04449911 3.13349732 0 0 Z " fill="#ECE3FC" transform="translate(339,471)"/>
<path d="M0 0 C0.99 0 1.98 0 3 0 C2.5359375 0.8353125 2.5359375 0.8353125 2.0625 1.6875 C0.89955944 3.97909861 0.89955944 3.97909861 0.5 6.5625 C0 9 0 9 -2 12 C-2.05395478 10.37536158 -2.09277195 8.75021459 -2.125 7.125 C-2.14820313 6.22007813 -2.17140625 5.31515625 -2.1953125 4.3828125 C-2 2 -2 2 0 0 Z " fill="#EDE6FA" transform="translate(191,16)"/>
<path d="M0 0 C0.33 0 0.66 0 1 0 C1.125 6.625 1.125 6.625 0 10 C-0.99 10.33 -1.98 10.66 -3 11 C-2.01 7.37 -1.02 3.74 0 0 Z " fill="#CDC8D6" transform="translate(188,19)"/>
<path d="M0 0 C2.56687367 3.8503105 1.83288724 5.58569763 1 10 C0.34 9.67 -0.32 9.34 -1 9 C-0.67 6.03 -0.34 3.06 0 0 Z " fill="#F3EEFD" transform="translate(493,473)"/>
</svg>
